<svg width="51" height="51" viewBox="0 0 51 51" fill="none" xmlns="http://www.w3.org/2000/svg">
<path d="M25.4414 0C39.4924 0 50.8836 11.3905 50.8838 25.4414C50.8838 39.4925 39.4925 50.8838 25.4414 50.8838C11.3905 50.8836 0 39.4924 0 25.4414C0.000162865 11.3906 11.3906 0.000162876 25.4414 0Z" fill="#0E4E14"/>
<path d="M25.4414 0C39.4924 0 50.8836 11.3905 50.8838 25.4414C50.8838 39.4925 39.4925 50.8838 25.4414 50.8838C11.3905 50.8836 0 39.4924 0 25.4414C0.000162865 11.3906 11.3906 0.000162876 25.4414 0Z" stroke="#E5E7EB"/>
<path d="M31.8027 40.7061H19.082V10.1758H31.8027V40.7061Z" stroke="#E5E7EB"/>
<g clip-path="url(#clip0_489_411)">
<path d="M30.1759 25.437L30.7412 21.7536H27.2068V19.3632C27.2068 18.3555 27.7005 17.3732 29.2834 17.3732H30.8902V14.2371C30.8902 14.2371 29.4321 13.9883 28.038 13.9883C25.1273 13.9883 23.2247 15.7525 23.2247 18.9462V21.7536H19.9893V25.437H23.2247V34.3416H27.2068V25.437H30.1759Z" fill="white"/>
</g>
<defs>
<clipPath id="clip0_489_411">
<path d="M19.0811 13.9883H31.8019V34.3416H19.0811V13.9883Z" fill="white"/>
</clipPath>
</defs>
</svg>
