<svg width="56" height="56" viewBox="0 0 56 56" fill="none" xmlns="http://www.w3.org/2000/svg">
<g clip-path="url(#clip0_1_179)">
<path d="M54.9696 3.91986L52.08 1.03026C51.4252 0.379155 50.5394 0.0136719 49.616 0.0136719C48.6926 0.0136719 47.8068 0.379155 47.152 1.03026L19.824 28.2687C19.6632 28.4268 19.5539 28.6298 19.5104 28.8511L17.92 36.7359C17.8868 36.8986 17.8902 37.0667 17.9299 37.228C17.9697 37.3892 18.0448 37.5396 18.1499 37.6683C18.255 37.797 18.3873 37.9006 18.5374 37.9718C18.6875 38.043 18.8515 38.0799 19.0176 38.0799H19.2416L27.0816 36.4895C27.2949 36.4418 27.4895 36.3328 27.6416 36.1759L54.9696 8.95986C55.2954 8.63522 55.5539 8.24946 55.7302 7.82471C55.9066 7.39996 55.9974 6.94458 55.9974 6.48466C55.9974 6.02475 55.9066 5.56936 55.7302 5.14461C55.5539 4.71986 55.2954 4.33411 54.9696 4.00946V3.91986ZM26.32 34.3391L20.4736 35.5263L21.6608 29.6127L44.5312 6.71986L49.28 11.4463L26.32 34.3391ZM53.4016 7.27986L50.8032 9.87826L46.1216 5.19666L48.72 2.59826C48.9551 2.36436 49.2732 2.23305 49.6048 2.23305C49.9364 2.23305 50.2545 2.36436 50.4896 2.59826L53.4016 5.51026C53.6355 5.74533 53.7668 6.06345 53.7668 6.39506C53.7668 6.72668 53.6355 7.0448 53.4016 7.27986ZM47.04 24.6399H49.28V53.1999C49.2741 53.9407 48.9773 54.6495 48.4534 55.1733C47.9296 55.6971 47.2208 55.994 46.48 55.9999H2.8C2.05739 55.9999 1.3452 55.7049 0.820101 55.1798C0.294999 54.6547 0 53.9425 0 53.1999L0 9.51986C0 8.77726 0.294999 8.06507 0.820101 7.53996C1.3452 7.01486 2.05739 6.71986 2.8 6.71986H31.36V8.95986H2.8C2.65148 8.95986 2.50904 9.01886 2.40402 9.12388C2.299 9.2289 2.24 9.37134 2.24 9.51986V53.1999C2.24 53.3484 2.299 53.4908 2.40402 53.5958C2.50904 53.7009 2.65148 53.7599 2.8 53.7599H46.48C46.6285 53.7599 46.771 53.7009 46.876 53.5958C46.981 53.4908 47.04 53.3484 47.04 53.1999V24.6399Z" fill="#0E1D25"/>
</g>
<defs>
<clipPath id="clip0_1_179">
<rect width="56" height="56" fill="white"/>
</clipPath>
</defs>
</svg>
