<svg width="169" height="169" viewBox="0 0 169 169" fill="none" xmlns="http://www.w3.org/2000/svg">
<path d="M25.7676 19.3008V86.9004H39.4336C50.0893 86.9002 58.7333 78.2563 58.7334 67.6006V56.333C58.7335 42.1005 70.2676 30.5666 84.5 30.5664C98.7326 30.5664 110.267 42.1004 110.268 56.333V68.5996L110.971 69.3027L149.7 108.029V115.9H127.168V118.301C127.168 129.418 118.151 138.434 107.033 138.434C95.9154 138.434 86.9006 129.419 86.9004 118.301V115.9H64.3672V108.03L103.098 69.3027L103.801 68.5996V56.333C103.801 45.6776 95.1615 37.0332 84.5 37.0332C73.8443 37.0334 65.2003 45.6772 65.2002 56.333V67.6006C65.2001 81.8328 53.6662 93.366 39.4336 93.3662H25.7676V149.7H19.3008V19.3008H25.7676ZM93.3672 118.301C93.3674 125.848 99.4848 131.968 107.033 131.968C114.581 131.968 120.7 125.849 120.7 118.301V115.9H93.3672V118.301ZM105.336 76.207L76.2021 105.338L72.1045 109.435H141.964L137.865 105.338L108.73 76.207L107.033 74.5107L105.336 76.207Z" fill="#15711D" stroke="#0D0D0D" stroke-width="4.8"/>
</svg>
