<svg width="93" height="135" viewBox="0 0 93 135" fill="none" xmlns="http://www.w3.org/2000/svg">
<path d="M46.4917 13.5772C48.9309 13.5772 50.1224 13.5686 50.8017 13.4867C51.1258 13.4476 51.2732 13.3973 51.3595 13.3549C51.4455 13.3126 51.5214 13.2554 51.692 13.0991V13.0981C51.8485 12.9529 52.0184 12.7493 52.1574 12.5393C52.2929 12.3345 52.361 12.1798 52.3827 12.1075C52.3824 12.1 52.3825 12.09 52.3817 12.0779C52.3773 12.0143 52.3646 11.9171 52.3394 11.7808C52.289 11.5089 52.198 11.134 52.0639 10.6593C51.7966 9.71288 51.3742 8.42014 50.8145 6.85895L50.8125 6.85502C49.7792 3.91971 49.1479 2.38114 48.5469 1.56127C48.2675 1.1802 48.025 1.00055 47.7864 0.901148C47.5326 0.795484 47.2095 0.749689 46.7092 0.756531H46.6983C46.3972 0.756549 46.0534 0.782582 45.747 0.823429C45.4371 0.864764 45.2207 0.915029 45.1312 0.945418C44.7768 1.099 44.4812 1.32453 44.0766 2.07382C43.6366 2.88851 43.1218 4.22171 42.3185 6.52742L42.3175 6.53135L41.987 7.46989C41.2668 9.53799 40.9019 10.7767 40.8055 11.6038C40.7527 12.0562 40.7888 12.3232 40.8547 12.5069C40.918 12.6836 41.0324 12.8505 41.258 13.0657C41.4434 13.2362 41.5245 13.3004 41.6161 13.347C41.7035 13.3914 41.8491 13.4425 42.17 13.4828C42.8469 13.5678 44.0361 13.5772 46.4917 13.5772ZM46.2547 10.7951C45.7956 10.7951 45.3662 10.7688 45.0495 10.6633C44.8973 10.6125 44.6347 10.5004 44.4642 10.2333C44.2774 9.94066 44.3034 9.63559 44.3825 9.41581V9.41483C44.4395 9.2441 44.7839 8.30144 45.0662 7.48267L45.0692 7.4748C45.2227 7.04494 45.3866 6.63881 45.5276 6.33263C45.5968 6.18238 45.668 6.03915 45.7362 5.92534C45.7683 5.87169 45.8147 5.79876 45.8729 5.73055C45.9012 5.69752 45.9519 5.64266 46.0235 5.58987C46.0804 5.54792 46.2477 5.43443 46.4917 5.43443C46.7644 5.43456 46.9424 5.57586 46.9925 5.61742C47.0622 5.67518 47.1104 5.73416 47.1361 5.76794C47.1899 5.83859 47.2333 5.91454 47.264 5.97158C47.3293 6.09275 47.4005 6.24901 47.4716 6.41625C47.6163 6.75649 47.7921 7.21493 47.9714 7.70796C48.1561 8.21594 48.3052 8.70189 48.3983 9.08231C48.4441 9.26945 48.481 9.45031 48.4987 9.60372C48.5072 9.67752 48.5147 9.77229 48.5085 9.87032C48.5054 9.9193 48.4976 9.99218 48.4741 10.074C48.4583 10.129 48.4255 10.2246 48.3541 10.3248L48.2694 10.4252L48.1681 10.5108C48.0671 10.5837 47.9726 10.619 47.935 10.6328C47.8615 10.6595 47.7884 10.6778 47.7274 10.6908C47.6032 10.7171 47.4587 10.7366 47.3122 10.7508C47.0151 10.7797 46.6418 10.7951 46.2547 10.7951Z" fill="#15711D" stroke="#0D0D0D" stroke-width="1.5"/>
<path d="M62.7636 134.244L63.3804 133.716L63.948 133.229L64.0346 123.208L64.1232 112.844L64.1281 112.274L64.678 112.122L66.3947 111.65V111.649C66.8444 111.524 67.2619 111.509 67.4513 111.488C67.6454 111.465 67.6986 111.439 67.7661 111.379C67.8741 111.283 68.0566 111.048 68.319 110.445C68.5761 109.853 68.8805 108.978 69.2703 107.677C70.4421 103.767 72.3089 96.2566 75.8882 81.7506L80.0762 64.7872L83.8668 49.39L84.0025 48.8391L84.5692 48.8154L88.1797 48.6689V48.6679C89.8961 48.5926 90.7408 48.5415 91.2304 48.4416C91.4552 48.3957 91.5512 48.349 91.6032 48.3157C91.657 48.2813 91.7149 48.2292 91.8325 48.0855L91.8354 48.0825C92.2712 47.5555 92.2643 47.0008 92.0174 46.5704C91.7605 46.123 91.1944 45.7362 90.3745 45.7362C89.4654 45.7362 87.9889 45.5228 86.4256 45.2109C84.846 44.8957 83.1155 44.4676 81.6778 44.0136C72.1252 41.0202 62.5707 33.2214 56.6848 23.6719L56.6808 23.666C56.2172 22.898 55.6948 22.1067 55.2317 21.4554C54.7532 20.7825 54.3793 20.3177 54.2056 20.1548L54.1977 20.1469L53.5543 19.5272L46.6885 19.4416H46.6875C43.1274 19.3969 41.3731 19.3754 40.3775 19.4465C39.8892 19.4814 39.6412 19.5363 39.4774 19.596C39.3197 19.6535 39.1999 19.7287 38.9569 19.8981L38.951 19.902C38.7771 20.0212 38.3975 20.4132 37.8885 21.057C37.4035 21.6704 36.8566 22.4393 36.3519 23.2321H36.3529C31.3148 31.299 24.1981 38.005 16.7745 41.7469L16.7686 41.7499L15.9806 42.1208C14.066 42.9839 11.6482 43.8248 9.32826 44.476C6.6943 45.2153 4.0926 45.7362 2.4575 45.7362C2.06891 45.7363 1.62803 45.9184 1.27794 46.232C0.923529 46.5496 0.755547 46.915 0.755547 47.202C0.755677 47.246 0.784069 47.3997 0.892294 47.6192C0.994595 47.8266 1.12895 48.0123 1.25433 48.1288L1.27007 48.1435L1.28581 48.1593C1.45183 48.3325 1.53695 48.4068 1.61538 48.4554C1.68081 48.4959 1.77515 48.5397 1.97544 48.5754C2.43285 48.6569 3.20647 48.6669 4.85597 48.6669H8.8403L8.99082 49.2257L9.28694 50.3206L9.28595 50.3216C9.47494 50.9877 10.2762 54.2181 11.0696 57.5387L11.0686 57.5397C15.1542 74.3264 18.4335 87.5429 20.7677 96.6432C21.9351 101.194 22.8655 104.712 23.542 107.13C23.8805 108.34 24.1533 109.268 24.3595 109.911C24.463 110.233 24.5473 110.473 24.6114 110.638C24.6352 110.698 24.6543 110.743 24.6684 110.774C24.7727 110.867 25.0003 111.021 25.3551 111.195C25.7372 111.383 26.1903 111.559 26.6183 111.679L26.6173 111.68L28.3055 112.153L28.8525 112.306L28.8564 112.874L28.9459 123.208L29.0315 133.229L29.6001 133.716L30.217 134.244H62.7636ZM60.2038 45.6772C52.6804 45.7068 40.3299 45.7068 32.7178 45.6772H32.7158L18.8877 45.5886L16.0544 45.5699L18.5198 44.1749L20.7677 42.9039V42.9029C27.547 39.0332 34.2983 32.3762 38.8576 24.9527L38.8605 24.9488L40.2821 22.6684L40.5034 22.3132H52.4574L52.6768 22.6822L53.8023 24.5779L53.8032 24.5799C55.7195 27.8318 58.6094 31.5129 62.0966 35.0001C65.6427 38.5463 68.3467 40.6971 72.0436 42.8803L74.263 44.1808L76.631 45.5709L73.8853 45.5886L60.2047 45.6772H60.2038ZM34.1856 110.73C34.1406 110.725 34.096 110.718 34.0626 110.712C33.9922 110.699 33.9048 110.68 33.8088 110.657C33.6131 110.611 33.3435 110.543 33.0237 110.457C32.7033 110.37 32.3268 110.265 31.913 110.147L30.5839 109.756L27.1486 108.749L26.7314 108.627L26.6271 108.206L23.903 97.1902C19.6094 79.8232 16.7074 68.0813 14.8788 60.6445C13.9645 56.9263 13.3182 54.2826 12.9004 52.5499C12.6916 51.6841 12.5392 51.0431 12.439 50.6089C12.3891 50.3927 12.3515 50.2241 12.3259 50.1032C12.3132 50.0434 12.3023 49.9901 12.2944 49.9468C12.2932 49.9403 12.2885 49.9134 12.2835 49.877L12.2737 49.7481L12.2826 49.6271C12.3231 49.3576 12.4918 49.1876 12.5885 49.1116C12.6991 49.0247 12.8129 48.9783 12.8807 48.9542C13.0241 48.9032 13.1916 48.8726 13.35 48.8499C13.6804 48.8026 14.1569 48.7678 14.7774 48.7417C16.0275 48.6891 17.9598 48.6669 20.6989 48.6669H29.0335L29.1171 49.327L29.2952 50.7191V50.7201C29.5339 52.6151 30.9943 67.401 32.3813 81.7005C33.0753 88.8555 33.7511 95.8961 34.2485 101.154C34.4972 103.783 34.7017 105.967 34.8408 107.496C34.9103 108.261 34.9635 108.863 34.9982 109.277C35.0155 109.483 35.0286 109.645 35.0365 109.758C35.0404 109.813 35.0437 109.863 35.0454 109.901C35.0462 109.918 35.0465 109.943 35.0464 109.97C35.0463 109.98 35.0465 110.008 35.0434 110.042C35.0415 110.062 35.0348 110.11 35.0287 110.141C35.0131 110.2 34.9212 110.393 34.824 110.513L34.7375 110.599L34.6283 110.654L34.5043 110.702C34.3867 110.737 34.2952 110.735 34.2908 110.735C34.2451 110.736 34.2068 110.732 34.1856 110.73ZM38.0351 110.334C38.0341 110.322 38.0312 110.272 38.0223 110.162C38.0122 110.036 37.9972 109.858 37.9771 109.631C37.9368 109.177 37.8775 108.531 37.802 107.722C37.6509 106.102 37.4348 103.826 37.1743 101.11C36.6534 95.677 35.955 88.4812 35.2481 81.2361C33.8333 66.7364 32.3844 52.0704 32.2377 50.9099L32.0606 49.5179L31.9514 48.6669H60.5707V50.2223C60.5707 50.3781 60.5021 51.1879 60.3917 52.424C60.2782 53.694 60.1143 55.4775 59.9126 57.643C59.509 61.9744 58.9534 67.8384 58.3464 74.1902V74.1912C56.8362 89.87 55.9846 98.6585 55.4885 103.646C54.9948 108.608 54.8511 109.839 54.7546 110.354L54.7516 110.367L54.7487 110.379L54.5716 111.179L54.4398 111.77H38.0351V110.334ZM58.7615 110.612C58.7089 110.611 58.6145 110.606 58.5097 110.576C58.4398 110.555 58.1453 110.464 58.0001 110.137L57.9853 110.103L57.9735 110.069C57.9603 110.025 57.945 109.955 57.941 109.929C57.9389 109.912 57.936 109.884 57.9351 109.871C57.9336 109.847 57.9332 109.826 57.9332 109.814C57.9332 109.789 57.9343 109.764 57.9351 109.744C57.9369 109.702 57.9399 109.648 57.944 109.587C57.9524 109.463 57.9662 109.287 57.9843 109.064C58.0207 108.618 58.0761 107.973 58.1486 107.159C58.2937 105.53 58.5068 103.218 58.7645 100.448C59.28 94.9094 59.9778 87.5391 60.6848 80.1471C61.3918 72.7549 62.1077 65.3398 62.6603 59.7119C62.9365 56.898 63.1721 54.5296 63.345 52.8342C63.4314 51.987 63.5019 51.3061 63.5545 50.8214C63.6036 50.3693 63.6424 50.027 63.6657 49.9173L63.6686 49.9065L63.8162 49.2552L63.95 48.6669H72.2522C74.4784 48.6669 76.4126 48.6971 77.7938 48.7456C78.4825 48.7698 79.0432 48.7987 79.4368 48.8322C79.6298 48.8486 79.8021 48.8676 79.9346 48.8912C79.9951 48.902 80.0832 48.92 80.1697 48.9512C80.2083 48.9651 80.2948 48.9979 80.3851 49.0634C80.4522 49.112 80.7068 49.3134 80.7068 49.6891C80.7068 49.7536 80.6975 49.808 80.697 49.811C80.6944 49.8284 80.6923 49.8446 80.6901 49.8563C80.6856 49.8803 80.6794 49.9078 80.6734 49.936C80.6611 49.9937 80.6434 50.0726 80.6212 50.1691C80.5766 50.3635 80.5109 50.6434 80.4255 51.0014C80.2545 51.7182 80.0033 52.7577 79.6817 54.0787C79.0384 56.7215 78.1122 60.4961 76.9832 65.0823C74.7252 74.2551 71.6531 86.678 68.3957 99.7962V99.7972L67.6008 102.923C67.3494 103.894 67.1156 104.78 66.9112 105.535C66.707 106.288 66.5307 106.915 66.3957 107.367C66.3285 107.592 66.2694 107.781 66.2206 107.923C66.1965 107.993 66.172 108.061 66.1478 108.12C66.1388 108.142 66.087 108.276 65.9923 108.39L65.9707 108.415L65.9461 108.44C65.8306 108.555 65.6877 108.63 65.6195 108.665C65.527 108.713 65.4196 108.761 65.3066 108.808C65.079 108.902 64.7873 109.009 64.4616 109.121C63.8074 109.345 62.9773 109.602 62.1605 109.838C61.3445 110.073 60.5286 110.291 59.9037 110.433C59.5946 110.503 59.314 110.559 59.098 110.588C58.9951 110.602 58.8745 110.615 58.7615 110.612ZM57.4157 131.236C55.319 131.284 51.8729 131.284 46.4268 131.255H46.4258L32.7158 131.166L31.974 131.161L31.9652 130.419L31.8766 122.482V122.481C31.8545 120.256 31.8261 118.599 31.8373 117.399C31.8482 116.233 31.8938 115.378 32.0655 114.823C32.1557 114.531 32.3133 114.209 32.6233 113.992C32.9464 113.767 33.2988 113.75 33.5727 113.784C33.8346 113.816 34.1075 113.903 34.3518 113.99C34.4796 114.036 34.6162 114.087 34.7542 114.139C34.8919 114.19 35.0351 114.243 35.1871 114.297C35.5886 114.435 36.2714 114.546 37.9771 114.613C39.6626 114.679 42.2685 114.701 46.4603 114.701C55.7046 114.701 56.7972 114.633 58.2549 114.174V114.173L60.0316 113.611L61.0036 113.303L61.0154 114.323L61.1039 122.051V122.054C61.1187 124.189 61.1188 126.17 61.1039 127.645C61.0965 128.382 61.0856 128.997 61.0705 129.444C61.063 129.665 61.0542 129.852 61.0439 129.994C61.0388 130.065 61.032 130.133 61.0242 130.192C61.0218 130.211 61.0134 130.288 60.9868 130.378L60.9544 130.471C60.8667 130.683 60.7115 130.806 60.6189 130.866C60.5073 130.938 60.3919 130.98 60.3061 131.006C60.1311 131.059 59.9154 131.094 59.6784 131.121C59.1932 131.175 58.4597 131.212 57.4157 131.236Z" fill="#15711D" stroke="#0D0D0D" stroke-width="1.5"/>
</svg>
