<svg width="240" height="78" viewBox="0 0 240 78" fill="none" xmlns="http://www.w3.org/2000/svg">
<path fill-rule="evenodd" clip-rule="evenodd" d="M10.5692 33.5013L29.8388 33.5212C32.9211 33.5411 36.2222 33.8792 37.6739 31.6519C38.7278 30.061 38.9068 25.9446 36.5205 24.5128C34.6313 23.3992 30.1371 23.7572 27.6513 23.7572C24.4298 23.7572 21.2149 23.7572 18.0066 23.7572C15.0436 23.7572 11.6431 23.9361 8.85901 23.3396C3.80796 22.2259 0.168818 18.7857 0.00973024 12.9591C-0.169244 6.43645 2.11765 2.75753 7.12893 0.92802C9.8732 -0.0662819 12.8362 0.0530294 15.8987 0.0530294C25.4241 0.0530294 35.3074 -0.0662868 44.7533 0.0530294L44.7334 7.33131C41.6113 7.45063 38.2506 7.33132 35.0887 7.31143L15.8191 7.29155C12.5777 7.27166 9.91297 7.41085 9.1573 10.3142C8.81924 11.6665 8.93855 13.3966 9.57491 14.5102C10.1317 15.4647 11.1061 16.0812 12.4982 16.3596C13.9498 16.6579 29.799 16.4789 31.6484 16.4789C34.7904 16.4789 37.475 16.4192 40.2591 17.4334C45.0118 19.1237 47.6964 23.1208 47.3783 29.5241C47.0601 35.5894 44.0573 38.8706 38.8471 40.2825C36.2818 40.9785 32.5632 40.7995 29.7393 40.7995H10.4698C8.28231 40.7995 2.69434 40.8989 0.924483 40.7796L0.944376 33.5013C2.43583 33.382 8.5806 33.5013 10.5692 33.5013ZM53.006 0.311545L62.0144 0.331439V16.7573H90.352V0.311545H99.3603L99.3404 40.5211H90.352V24.0952L62.0144 24.1151L61.9945 40.5012L53.006 40.5211V0.311545ZM121.911 0.311545H135.692C135.99 0.371203 136.249 1.16665 136.408 1.54448L138.098 5.30295C138.874 6.9336 139.59 8.60402 140.365 10.2943C141.897 13.6352 143.428 16.9959 144.899 20.3766C145.635 22.0868 146.391 23.7572 147.166 25.4475C147.644 26.4816 153.828 40.0239 153.928 40.5012L144.382 40.5211C144.024 40.5211 143.527 39.1092 143.269 38.5126L140.365 32.0298H117.457L113.639 40.5211L103.855 40.5012L121.911 0.311545ZM137.044 24.7117L129.269 7.3512C128.235 7.31143 128.593 7.27166 127.618 9.37958L122.707 20.297C122.09 21.6691 121.434 23.3197 120.758 24.6719C121.633 24.8111 134.976 24.7316 137.044 24.7117ZM205.094 2.75752C205.293 2.33992 205.472 1.92231 205.651 1.50471C205.81 1.12687 206.069 0.371203 206.327 0.311545H219.989C220.267 0.410975 222.097 4.76601 222.355 5.34271C226.174 13.6352 229.852 22.2259 233.671 30.4787C234.466 32.1491 235.162 33.8195 235.938 35.47C236.276 36.1859 238.085 40.0041 238.145 40.5211L228.421 40.5012C228.023 39.666 224.742 32.1093 224.463 32.0298H201.853C201.435 32.2485 200.978 33.6405 200.759 34.1178L197.856 40.5211L188.132 40.5012L205.094 2.75752ZM204.995 24.7117L205.373 24.7316C207.54 24.7515 219.81 24.8111 221.282 24.6918C220.963 23.7572 216.032 12.9789 215.415 11.6068L213.924 8.30573C213.546 7.47052 213.705 7.3512 213.009 7.3512C212.591 7.3512 212.214 8.62391 211.875 9.35969L204.995 24.7117Z" fill="#00641A"/>
<path fill-rule="evenodd" clip-rule="evenodd" d="M106.672 51.8169H239.033V46.3284H106.691L106.672 51.8169Z" fill="#952100"/>
<path fill-rule="evenodd" clip-rule="evenodd" d="M167.442 40.5015L176.451 40.5214C176.55 39.6862 176.49 29.1068 176.49 27.1779C176.49 26.2631 176.371 26.2035 176.848 25.6467L187.229 13.0389C187.806 12.3031 188.343 11.6469 188.959 10.931C191.485 7.96798 194.169 4.54758 196.695 1.48513C197.053 1.06753 197.371 0.789118 197.609 0.311854H186.473C186.334 0.610144 185.857 1.18684 185.598 1.46524C185.26 1.86296 185.002 2.20103 184.723 2.57887C184.107 3.37431 183.51 4.07032 182.894 4.86576C182.158 5.78052 172.294 18.1695 171.877 18.4678L170.107 16.2406C169.471 15.465 168.934 14.769 168.278 13.9736L160.94 4.88564C160.303 4.11009 159.766 3.41408 159.11 2.61864C158.712 2.12149 157.539 0.749346 157.32 0.311854H146.184C146.661 1.20673 162.849 20.4962 165.195 23.4592L166.965 25.6069C167.462 26.1637 167.422 26.0842 167.422 27.0785C167.403 30.0216 167.283 38.7714 167.442 40.5015Z" fill="#00641A"/>
<path d="M235.729 71.7938C234.857 71.7938 234.111 71.6968 233.492 71.503C232.874 71.3092 232.363 71.1042 231.961 70.8881L232.207 68.7636C232.587 69.0245 233.067 69.2779 233.649 69.5239C234.238 69.7625 234.901 69.8817 235.639 69.8817C236.28 69.8817 236.769 69.7774 237.104 69.5686C237.447 69.3525 237.618 69.0357 237.618 68.6182C237.618 68.2753 237.518 67.9995 237.316 67.7908C237.115 67.5746 236.851 67.3957 236.523 67.2541C236.195 67.1125 235.848 66.982 235.483 66.8627C234.909 66.6764 234.365 66.4602 233.85 66.2142C233.343 65.9682 232.93 65.6402 232.609 65.2302C232.296 64.8128 232.139 64.2612 232.139 63.5754C232.139 62.979 232.289 62.4312 232.587 61.9317C232.885 61.4323 233.336 61.0372 233.94 60.7465C234.551 60.4483 235.326 60.2992 236.265 60.2992C236.981 60.2992 237.589 60.3775 238.088 60.534C238.595 60.6831 239.046 60.862 239.441 61.0707L239.195 63.1393C238.8 62.8337 238.371 62.5802 237.909 62.379C237.454 62.1703 236.921 62.0659 236.31 62.0659C235.744 62.0659 235.293 62.1777 234.957 62.4013C234.622 62.6175 234.454 62.9492 234.454 63.3965C234.454 63.8736 234.652 64.2202 235.047 64.4364C235.442 64.6525 236.057 64.9023 236.892 65.1855C237.272 65.3122 237.644 65.4651 238.01 65.644C238.375 65.8154 238.707 66.0241 239.005 66.2701C239.31 66.5161 239.553 66.8217 239.732 67.187C239.911 67.5523 240 67.9883 240 68.4952C240 69.0767 239.858 69.6171 239.575 70.1165C239.299 70.616 238.848 71.0222 238.222 71.3353C237.603 71.6409 236.772 71.7938 235.729 71.7938Z" fill="#07090A"/>
<path d="M229.232 71.7941C228.546 71.7941 227.994 71.6636 227.577 71.4027C227.159 71.1418 226.854 70.8027 226.66 70.3852C226.474 69.9603 226.38 69.5093 226.38 69.0323V54.7983H228.717V67.8806C228.717 68.4918 228.755 68.9428 228.829 69.2335C228.911 69.5168 229.064 69.6994 229.288 69.7814C229.519 69.8634 229.858 69.9044 230.305 69.9044L230.037 71.7941H229.232Z" fill="#07090A"/>
<path d="M218.136 71.7938C216.966 71.7938 215.963 71.5366 215.128 71.0222C214.301 70.5004 213.667 69.8072 213.227 68.9425C212.795 68.0703 212.579 67.1087 212.579 66.0577C212.579 64.9992 212.795 64.0338 213.227 63.1617C213.667 62.2895 214.301 61.5963 215.128 61.0819C215.963 60.5601 216.966 60.2992 218.136 60.2992C219.314 60.2992 220.316 60.5601 221.144 61.0819C221.979 61.5963 222.612 62.2895 223.045 63.1617C223.484 64.0338 223.704 64.9992 223.704 66.0577C223.704 67.1087 223.484 68.0703 223.045 68.9425C222.612 69.8072 221.979 70.5004 221.144 71.0222C220.316 71.5366 219.314 71.7938 218.136 71.7938ZM218.136 69.7923C219.165 69.7923 219.951 69.4568 220.495 68.7859C221.047 68.1151 221.323 67.2056 221.323 66.0577C221.323 64.9023 221.047 63.9854 220.495 63.307C219.951 62.6287 219.165 62.2895 218.136 62.2895C217.122 62.2895 216.339 62.6287 215.788 63.307C215.236 63.9854 214.96 64.9023 214.96 66.0577C214.96 67.2056 215.236 68.1151 215.788 68.7859C216.339 69.4568 217.122 69.7923 218.136 69.7923Z" fill="#07090A"/>
<path d="M205.612 71.5701V60.5229H207.67L207.837 62.0659C208.285 61.5292 208.762 61.1006 209.269 60.78C209.783 60.4595 210.338 60.2992 210.935 60.2992C211.114 60.2992 211.281 60.3179 211.438 60.3551L211.237 62.7815C211.11 62.7517 210.979 62.7293 210.845 62.7144C210.719 62.6995 210.584 62.6921 210.443 62.6921C209.906 62.6921 209.414 62.815 208.967 63.061C208.527 63.2996 208.214 63.5717 208.028 63.8773V71.5701H205.612Z" fill="#07090A"/>
<path d="M201.065 71.7946C200.372 71.7946 199.809 71.6604 199.377 71.3921C198.952 71.1237 198.639 70.7808 198.438 70.3634C198.244 69.9459 198.147 69.5061 198.147 69.044V62.391H196.392L196.604 60.5237H198.147V57.9184L200.484 57.6724V60.5237H203.19V62.391H200.484V67.8587C200.484 68.4998 200.521 68.9657 200.596 69.2564C200.67 69.5397 200.853 69.7186 201.144 69.7931C201.434 69.8677 201.897 69.9049 202.53 69.9049H203.156L202.955 71.7946H201.065Z" fill="#07090A"/>
<path d="M184.398 71.5707V60.5234H186.4L186.679 62.6143L185.964 62.0553C186.568 61.4291 187.198 60.9818 187.854 60.7135C188.509 60.4451 189.195 60.311 189.911 60.311C191.439 60.311 192.55 60.7806 193.243 61.7198C193.936 62.6516 194.283 63.8927 194.283 65.4432V71.5707H191.946V65.5439C191.946 64.4332 191.748 63.6169 191.353 63.0951C190.958 62.5733 190.291 62.3124 189.352 62.3124C188.659 62.3124 188.047 62.4727 187.518 62.7932C186.996 63.1063 186.616 63.5759 186.378 64.2021L186.735 62.9162V71.5707H184.398Z" fill="#07090A"/>
<path d="M176.142 71.7938C174.972 71.7938 173.969 71.5366 173.134 71.0222C172.307 70.5004 171.673 69.8072 171.234 68.9425C170.801 68.0703 170.585 67.1087 170.585 66.0577C170.585 64.9992 170.801 64.0338 171.234 63.1617C171.673 62.2895 172.307 61.5963 173.134 61.0819C173.969 60.5601 174.972 60.2992 176.142 60.2992C177.32 60.2992 178.323 60.5601 179.15 61.0819C179.985 61.5963 180.618 62.2895 181.051 63.1617C181.491 64.0338 181.711 64.9992 181.711 66.0577C181.711 67.1087 181.491 68.0703 181.051 68.9425C180.618 69.8072 179.985 70.5004 179.15 71.0222C178.323 71.5366 177.32 71.7938 176.142 71.7938ZM176.142 69.7923C177.171 69.7923 177.957 69.4568 178.501 68.7859C179.053 68.1151 179.329 67.2056 179.329 66.0577C179.329 64.9023 179.053 63.9854 178.501 63.307C177.957 62.6287 177.171 62.2895 176.142 62.2895C175.128 62.2895 174.346 62.6287 173.794 63.307C173.242 63.9854 172.967 64.9023 172.967 66.0577C172.967 67.2056 173.242 68.1151 173.794 68.7859C174.346 69.4568 175.128 69.7923 176.142 69.7923Z" fill="#07090A"/>
<path d="M164.591 71.884C163.04 71.884 161.665 71.5486 160.465 70.8777C159.272 70.2068 158.336 69.2638 157.658 68.0488C156.98 66.8263 156.641 65.3913 156.641 63.7439C156.641 62.0965 156.983 60.6653 157.669 59.4502C158.362 58.2277 159.317 57.281 160.532 56.6101C161.747 55.9393 163.129 55.6038 164.68 55.6038C165.485 55.6038 166.242 55.6895 166.95 55.861C167.658 56.0324 168.277 56.2523 168.806 56.5207L168.538 58.8129C167.979 58.5445 167.378 58.3209 166.737 58.142C166.096 57.9631 165.403 57.8737 164.658 57.8737C163.48 57.8737 162.496 58.1346 161.706 58.6564C160.916 59.1707 160.315 59.8714 159.906 60.7585C159.503 61.6381 159.302 62.6332 159.302 63.7439C159.302 64.8546 159.499 65.8535 159.894 66.7405C160.297 67.6202 160.889 68.3209 161.672 68.8427C162.462 69.357 163.439 69.6142 164.602 69.6142C165.37 69.6142 166.066 69.5322 166.693 69.3682C167.326 69.1967 167.941 68.9694 168.538 68.6861L168.806 70.9783C168.232 71.2392 167.591 71.4554 166.883 71.6268C166.182 71.7983 165.418 71.884 164.591 71.884Z" fill="#07090A"/>
<path d="M141.461 72.0958C140.343 72.0958 139.407 71.902 138.655 71.5144C137.902 71.1268 137.335 70.6162 136.955 69.9825C136.575 69.3415 136.385 68.6445 136.385 67.8916C136.385 67.2729 136.493 66.6989 136.709 66.1697C136.925 65.6404 137.238 65.1484 137.648 64.6937C138.066 64.239 138.569 63.7992 139.158 63.3743C138.599 62.6811 138.177 62.0214 137.894 61.3952C137.618 60.769 137.48 60.1578 137.48 59.5614C137.48 58.7862 137.671 58.1228 138.051 57.5711C138.438 57.0121 138.945 56.5872 139.571 56.2965C140.205 55.9983 140.887 55.8492 141.618 55.8492C142.862 55.8492 143.791 56.1474 144.402 56.7437C145.021 57.3326 145.33 58.0818 145.33 58.9912C145.33 59.6472 145.162 60.2323 144.827 60.7467C144.491 61.261 144.055 61.7381 143.518 62.1779C142.982 62.6177 142.411 63.0463 141.808 63.4638L145.587 67.5003C145.699 67.2692 145.792 66.9896 145.867 66.6617C145.941 66.3337 146.001 65.987 146.045 65.6218C146.09 65.2565 146.12 64.9062 146.135 64.5707C146.157 64.2353 146.172 63.9483 146.18 63.7098H148.349C148.341 64.1421 148.304 64.6676 148.237 65.2863C148.177 65.8976 148.054 66.5424 147.868 67.2207C147.682 67.8916 147.41 68.5327 147.052 69.1439L149.165 71.5703H146.616L145.755 70.6534C145.143 71.1529 144.499 71.5181 143.82 71.7492C143.149 71.9803 142.363 72.0958 141.461 72.0958ZM141.651 70.318C142.337 70.318 142.915 70.2174 143.384 70.0161C143.854 69.8148 144.253 69.5502 144.581 69.2222L140.265 64.6937C139.817 65.059 139.448 65.4951 139.158 66.002C138.867 66.5088 138.722 67.0754 138.722 67.7015C138.722 68.1562 138.815 68.5849 139.001 68.9874C139.195 69.3825 139.504 69.703 139.929 69.949C140.354 70.195 140.928 70.318 141.651 70.318ZM140.824 62.245C141.331 61.8946 141.763 61.5629 142.121 61.2498C142.486 60.9368 142.766 60.6199 142.959 60.2994C143.161 59.9714 143.261 59.6024 143.261 59.1924C143.261 58.693 143.108 58.3166 142.803 58.0631C142.505 57.8022 142.098 57.6718 141.584 57.6718C141.07 57.6718 140.622 57.8358 140.242 58.1638C139.87 58.4917 139.683 58.9837 139.683 59.6397C139.683 59.9901 139.765 60.3777 139.929 60.8026C140.093 61.22 140.391 61.7008 140.824 62.245Z" fill="#07090A"/>
<path d="M123.848 77.1832C122.835 77.1832 121.936 77.0565 121.154 76.803C120.371 76.5496 119.756 76.1806 119.309 75.6961C118.869 75.219 118.649 74.6338 118.649 73.9406C118.649 73.3592 118.813 72.8523 119.141 72.4199C119.469 71.995 119.928 71.6372 120.516 71.3465C120.188 71.1676 119.931 70.9551 119.745 70.7092C119.566 70.4557 119.477 70.1762 119.477 69.8705C119.477 69.5276 119.577 69.222 119.778 68.9537C119.987 68.6853 120.297 68.4654 120.706 68.294C120.11 67.9063 119.655 67.392 119.342 66.7509C119.029 66.1098 118.873 65.4054 118.873 64.6376C118.873 63.84 119.048 63.1132 119.398 62.4572C119.756 61.7938 120.27 61.2683 120.941 60.8807C121.62 60.493 122.44 60.2992 123.401 60.2992C123.908 60.2992 124.381 60.37 124.821 60.5117C125.269 60.6458 125.671 60.8359 126.029 61.0819C126.32 60.9179 126.685 60.78 127.125 60.6682C127.572 60.5489 128.068 60.4893 128.612 60.4893C128.686 60.4893 128.757 60.4893 128.824 60.4893C128.891 60.4893 128.958 60.4893 129.025 60.4893L128.802 61.9988C128.683 61.9988 128.563 61.9988 128.444 61.9988C128.325 61.9988 128.206 61.9988 128.086 61.9988C128.012 61.9988 127.874 62.0063 127.673 62.0212C127.471 62.0361 127.277 62.0622 127.091 62.0994C127.367 62.4572 127.576 62.8523 127.717 63.2847C127.859 63.717 127.93 64.168 127.93 64.6376C127.93 65.4651 127.751 66.2105 127.393 66.8739C127.043 67.5373 126.528 68.0666 125.85 68.4617C125.179 68.8568 124.363 69.0543 123.401 69.0543C123.163 69.0543 122.928 69.0394 122.697 69.0096C122.473 68.9723 122.257 68.9276 122.048 68.8754C121.78 68.9648 121.646 69.1251 121.646 69.3562C121.646 69.5351 121.754 69.6842 121.97 69.8035C122.186 69.9153 122.529 70.0084 122.999 70.083L125.503 70.452C126.696 70.6309 127.62 70.9738 128.276 71.4807C128.94 71.9876 129.271 72.7106 129.271 73.6499C129.271 74.4028 129.052 75.0401 128.612 75.5619C128.179 76.0912 127.557 76.4937 126.744 76.7695C125.932 77.0453 124.967 77.1832 123.848 77.1832ZM124.005 75.26C124.996 75.26 125.753 75.1333 126.275 74.8798C126.797 74.6338 127.058 74.2611 127.058 73.7617C127.058 73.3442 126.886 73.0274 126.543 72.8113C126.2 72.5951 125.686 72.4274 125 72.3081L122.16 71.8608C121.772 72.0248 121.437 72.2447 121.154 72.5205C120.878 72.8038 120.74 73.1467 120.74 73.5492C120.74 74.1381 121.031 74.5705 121.612 74.8463C122.201 75.1221 122.999 75.26 124.005 75.26ZM123.401 67.2541C124.176 67.2541 124.762 67.0155 125.157 66.5385C125.559 66.0539 125.761 65.4241 125.761 64.6488C125.761 63.8885 125.559 63.2735 125.157 62.8039C124.762 62.3268 124.176 62.0883 123.401 62.0883C122.626 62.0883 122.037 62.3268 121.635 62.8039C121.239 63.2735 121.042 63.8885 121.042 64.6488C121.042 65.4241 121.239 66.0539 121.635 66.5385C122.037 67.0155 122.626 67.2541 123.401 67.2541Z" fill="#07090A"/>
<path d="M106.326 71.5707V60.5234H108.327L108.607 62.6143L107.891 62.0553C108.495 61.4291 109.125 60.9818 109.781 60.7135C110.437 60.4451 111.122 60.311 111.838 60.311C113.366 60.311 114.477 60.7806 115.17 61.7198C115.863 62.6516 116.21 63.8927 116.21 65.4432V71.5707H113.873V65.5439C113.873 64.4332 113.675 63.6169 113.28 63.0951C112.885 62.5733 112.218 62.3124 111.279 62.3124C110.586 62.3124 109.974 62.4727 109.445 62.7932C108.923 63.1063 108.543 63.5759 108.305 64.2021L108.662 62.9162V71.5707H106.326Z" fill="#07090A"/>
<path d="M100.65 71.5697V60.5224H102.987V71.5697H100.65ZM100.65 58.3756V55.9157H102.987V58.3756H100.65Z" fill="#07090A"/>
<path d="M96.1047 71.7946C95.4114 71.7946 94.8486 71.6604 94.4163 71.3921C93.9914 71.1237 93.6783 70.7808 93.477 70.3634C93.2832 69.9459 93.1863 69.5061 93.1863 69.044V62.391H91.4308L91.6433 60.5237H93.1863V57.9184L95.5232 57.6724V60.5237H98.2292V62.391H95.5232V67.8587C95.5232 68.4998 95.5605 68.9657 95.6351 69.2564C95.7096 69.5397 95.8922 69.7186 96.1829 69.7931C96.4737 69.8677 96.9358 69.9049 97.5694 69.9049H98.1956L97.9943 71.7946H96.1047Z" fill="#07090A"/>
<path d="M79.6312 71.5705V54.7983H81.9793V62.301L81.3084 62.0662C81.8004 61.5593 82.3334 61.1419 82.9074 60.8139C83.4888 60.4785 84.2082 60.3107 85.0654 60.3107C86.027 60.3107 86.8209 60.5269 87.4471 60.9593C88.0732 61.3842 88.5391 61.9805 88.8447 62.7483C89.1504 63.5161 89.3032 64.4069 89.3032 65.4207V71.5705H86.9663V65.6443C86.9663 64.5038 86.7687 63.6652 86.3736 63.1285C85.9786 62.5843 85.3561 62.3122 84.5063 62.3122C83.828 62.3122 83.2466 62.4837 82.762 62.8266C82.285 63.1695 81.8899 63.6279 81.5768 64.2019L81.9793 62.8601V71.5705H79.6312Z" fill="#07090A"/>
<path d="M72.2509 77.1832C71.2371 77.1832 70.3388 77.0565 69.5561 76.803C68.7734 76.5496 68.1585 76.1806 67.7112 75.6961C67.2714 75.219 67.0515 74.6338 67.0515 73.9406C67.0515 73.3592 67.2155 72.8523 67.5435 72.4199C67.8715 71.995 68.3299 71.6372 68.9188 71.3465C68.5908 71.1676 68.3336 70.9551 68.1473 70.7092C67.9684 70.4557 67.8789 70.1762 67.8789 69.8705C67.8789 69.5276 67.9795 69.222 68.1808 68.9537C68.3895 68.6853 68.6989 68.4654 69.1089 68.294C68.5125 67.9063 68.0578 67.392 67.7447 66.7509C67.4317 66.1098 67.2751 65.4054 67.2751 64.6376C67.2751 63.84 67.4503 63.1132 67.8006 62.4572C68.1585 61.7938 68.6728 61.2683 69.3437 60.8807C70.022 60.493 70.842 60.2992 71.8036 60.2992C72.3105 60.2992 72.7838 60.37 73.2237 60.5117C73.6709 60.6458 74.0734 60.8359 74.4312 61.0819C74.722 60.9179 75.0872 60.78 75.527 60.6682C75.9743 60.5489 76.47 60.4893 77.0142 60.4893C77.0887 60.4893 77.1595 60.4893 77.2266 60.4893C77.2937 60.4893 77.3608 60.4893 77.4279 60.4893L77.2042 61.9988C77.085 61.9988 76.9657 61.9988 76.8464 61.9988C76.7272 61.9988 76.6079 61.9988 76.4886 61.9988C76.4141 61.9988 76.2762 62.0063 76.0749 62.0212C75.8737 62.0361 75.6798 62.0622 75.4935 62.0994C75.7693 62.4572 75.978 62.8523 76.1196 63.2847C76.2613 63.717 76.3321 64.168 76.3321 64.6376C76.3321 65.4651 76.1532 66.2105 75.7954 66.8739C75.445 67.5373 74.9307 68.0666 74.2523 68.4617C73.5815 68.8568 72.7652 69.0543 71.8036 69.0543C71.5651 69.0543 71.3303 69.0394 71.0992 69.0096C70.8755 68.9723 70.6594 68.9276 70.4507 68.8754C70.1823 68.9648 70.0481 69.1251 70.0481 69.3562C70.0481 69.5351 70.1562 69.6842 70.3724 69.8035C70.5886 69.9153 70.9315 70.0084 71.4011 70.083L73.9057 70.452C75.0984 70.6309 76.0227 70.9738 76.6787 71.4807C77.3422 71.9876 77.6739 72.7106 77.6739 73.6499C77.6739 74.4028 77.454 75.0401 77.0142 75.5619C76.5818 76.0912 75.9594 76.4937 75.1469 76.7695C74.3343 77.0453 73.369 77.1832 72.2509 77.1832ZM72.4074 75.26C73.3988 75.26 74.1554 75.1333 74.6772 74.8798C75.199 74.6338 75.4599 74.2611 75.4599 73.7617C75.4599 73.3442 75.2885 73.0274 74.9456 72.8113C74.6027 72.5951 74.0884 72.4274 73.4026 72.3081L70.5625 71.8608C70.1748 72.0248 69.8394 72.2447 69.5561 72.5205C69.2803 72.8038 69.1424 73.1467 69.1424 73.5492C69.1424 74.1381 69.4331 74.5705 70.0146 74.8463C70.6035 75.1221 71.4011 75.26 72.4074 75.26ZM71.8036 67.2541C72.5789 67.2541 73.164 67.0155 73.5591 66.5385C73.9616 66.0539 74.1629 65.4241 74.1629 64.6488C74.1629 63.8885 73.9616 63.2735 73.5591 62.8039C73.164 62.3268 72.5789 62.0883 71.8036 62.0883C71.0284 62.0883 70.4395 62.3268 70.0369 62.8039C69.6419 63.2735 69.4443 63.8885 69.4443 64.6488C69.4443 65.4241 69.6419 66.0539 70.0369 66.5385C70.4395 67.0155 71.0284 67.2541 71.8036 67.2541Z" fill="#07090A"/>
<path d="M62.1518 71.5697V60.5224H64.4887V71.5697H62.1518ZM62.1518 58.3756V55.9157H64.4887V58.3756H62.1518Z" fill="#07090A"/>
<path d="M50.7021 71.5717V55.9176H53.1397V69.3801H60.0051V71.5717H50.7021Z" fill="#07090A"/>
</svg>
