<svg width="81" height="58" viewBox="0 0 81 58" fill="none" xmlns="http://www.w3.org/2000/svg">
<path d="M52.3118 1.00038C67.5782 1.00038 79.9999 13.4213 80 28.6876C80 43.954 67.5781 56.3748 52.3118 56.3748C37.0455 56.3746 24.6245 43.9539 24.6245 28.6876C24.6247 13.4214 37.0456 1.00057 52.3118 1.00038ZM52.3118 5.74925C39.6633 5.74944 29.3745 16.0383 29.3744 28.6876C29.3744 41.337 39.6633 51.6258 52.3118 51.626C64.9605 51.626 75.2501 41.3371 75.2501 28.6876C75.25 16.0382 64.9602 5.74925 52.3118 5.74925Z" fill="black" stroke="white" stroke-width="2"/>
<path d="M52.3118 11.1487C52.9386 11.1488 53.5405 11.3967 53.9853 11.8385C54.3744 12.2249 54.6158 12.7326 54.673 13.2736L54.6867 13.5071V26.3137H62.4367C62.7484 26.3137 63.0572 26.3751 63.3453 26.4944C63.6334 26.6138 63.8956 26.7888 64.116 27.0092C64.3363 27.2296 64.5116 27.491 64.6309 27.7791C64.7502 28.0672 64.8116 28.3767 64.8116 28.6886C64.8116 29.0002 64.7502 29.3092 64.6309 29.5971C64.5116 29.8852 64.3364 30.1466 64.116 30.367C63.8956 30.5874 63.6334 30.7624 63.3453 30.8818C63.0572 31.0011 62.7484 31.0625 62.4367 31.0625H52.3118C51.7607 31.0625 51.229 30.8715 50.8063 30.5252L50.6324 30.367C50.1872 29.9217 49.937 29.3181 49.9369 28.6886V13.5071C49.9413 12.88 50.1936 12.2801 50.6383 11.8385C51.083 11.3968 51.6848 11.1487 52.3118 11.1487Z" fill="black" stroke="white" stroke-width="2"/>
<path d="M6.74474 12.8134H18.5705C18.8838 12.8113 19.1943 12.871 19.4839 12.9893C19.7737 13.1075 20.0381 13.2822 20.2606 13.5032C20.4827 13.7237 20.659 13.9868 20.7793 14.2759C20.8996 14.5652 20.9611 14.8753 20.9611 15.1884C20.961 15.5014 20.8997 15.8118 20.7793 16.1008C20.6591 16.3898 20.4825 16.6521 20.2606 16.8726C20.0381 17.0935 19.7737 17.2682 19.4839 17.3865C19.1943 17.5048 18.8839 17.5654 18.5705 17.5633H6.74474C6.43131 17.5654 6.1201 17.5048 5.83033 17.3865L5.61834 17.2878C5.41155 17.1785 5.2214 17.0391 5.05465 16.8736V16.8726C4.83269 16.6522 4.6563 16.39 4.5359 16.1008C4.4156 15.8119 4.35322 15.5015 4.35321 15.1884C4.35321 14.8751 4.41553 14.5651 4.5359 14.2759C4.65631 13.9866 4.83262 13.7236 5.05465 13.5032C5.2214 13.3376 5.41154 13.1982 5.61834 13.0889L5.83033 12.9893C6.1201 12.8709 6.43131 12.8113 6.74474 12.8134Z" fill="black" stroke="white" stroke-width="2"/>
<path d="M3.3753 26.3127H16.8755C17.5051 26.3128 18.1085 26.5632 18.5539 27.0083C18.9992 27.4537 19.2495 28.0579 19.2495 28.6876C19.2494 29.317 18.9998 29.9207 18.5549 30.366C18.1095 30.8113 17.5052 31.0615 16.8755 31.0616H3.3753C2.74555 31.0616 2.14036 30.8113 1.69498 30.366C1.25014 29.9207 1.00046 29.317 1.00038 28.6876C1.00038 28.0578 1.25063 27.4536 1.69595 27.0083C2.14133 26.563 2.74557 26.3127 3.3753 26.3127Z" fill="black" stroke="white" stroke-width="2"/>
<path d="M11.8052 39.8139H18.5685C18.8819 39.8118 19.1924 39.8715 19.482 39.9897C19.7717 40.108 20.0362 40.2827 20.2586 40.5036C20.4807 40.7241 20.6571 40.9872 20.7774 41.2764C20.8976 41.5653 20.9591 41.8757 20.9591 42.1888C20.9591 42.4235 20.9247 42.6567 20.8565 42.8805L20.7774 43.1013C20.6572 43.3902 20.4805 43.6526 20.2586 43.873C20.0362 44.0939 19.7717 44.2687 19.482 44.3869C19.1923 44.5052 18.8819 44.5658 18.5685 44.5637H11.8052C11.4918 44.5658 11.1806 44.5053 10.8908 44.3869L10.6788 44.2882C10.4721 44.179 10.2819 44.0396 10.1152 43.874V43.873C9.8932 43.6527 9.71681 43.3905 9.5964 43.1013C9.47611 42.8123 9.41373 42.5019 9.41372 42.1888C9.41372 41.8755 9.47611 41.5653 9.5964 41.2764C9.71681 40.9871 9.89313 40.724 10.1152 40.5036C10.2819 40.338 10.472 40.1987 10.6788 40.0894L10.8908 39.9897C11.1806 39.8714 11.4918 39.8118 11.8052 39.8139Z" fill="black" stroke="white" stroke-width="2"/>
</svg>
