<svg width="141" height="141" viewBox="0 0 141 141" fill="none" xmlns="http://www.w3.org/2000/svg">
<mask id="path-1-inside-1_1_319" fill="white">
<path fill-rule="evenodd" clip-rule="evenodd" d="M139.018 41.8787C138.357 41.8787 137.779 41.5483 137.366 40.8875L132.657 32.6274C131.418 30.4798 134.64 28.6626 135.879 30.7276L140.67 39.0703C141.413 40.3093 140.422 41.8787 139.018 41.8787ZM57.8207 120.432V57.1599C57.8207 54.5993 61.2074 55.2601 64.0984 55.2601V35.601C59.4728 19.0808 39.8137 17.0984 38.5747 17.0158H25.3585V20.3198C25.3585 24.2847 22.2197 27.4235 18.2548 27.4235H1.89982C0.826011 27.4235 0 26.5975 0 25.5237V20.3198C0 16.4376 3.22144 13.2162 7.10369 13.2162L38.8225 13.2988C38.9877 13.2988 55.6731 14.6204 64.0984 26.7627V9.74691C64.0984 8.7557 64.9244 7.92969 65.9156 7.92969H75.0018C76.0756 7.92969 76.9016 8.7557 76.9016 9.74691V26.7627C85.3269 14.5378 102.012 13.2162 102.26 13.2162H133.896C137.779 13.2162 141 16.4376 141 20.3198V25.5237C141 26.5975 140.091 27.4235 139.1 27.4235H122.663C118.78 27.4235 115.641 24.2847 115.641 20.3198V17.0158H102.343C101.186 17.0984 81.5272 19.0808 76.9016 35.601V55.2601C79.7926 55.2601 83.1793 54.5993 83.1793 57.1599V120.432H95.9824C97.0562 120.432 97.8822 121.258 97.8822 122.332V131.17C97.8822 132.244 97.0562 133.07 95.9824 133.07H44.935C43.9438 133.07 43.0351 132.244 43.0351 131.17V122.332C43.0351 121.258 43.9438 120.432 44.935 120.432H57.8207ZM79.3796 120.432V58.9771H61.5378V78.6362H67.8155C68.8893 78.6362 69.7153 79.5448 69.7153 80.536V98.8735C69.7153 99.9473 68.8893 100.773 67.8155 100.773H61.5378V120.432H79.3796ZM46.8348 129.353H94.1652V124.149H46.8348V129.353ZM67.8155 55.2601H73.1845V11.6467H67.8155V55.2601ZM119.359 17.0158V20.3198C119.359 22.2197 120.845 23.7065 122.663 23.7065H137.2V20.3198C137.2 18.5026 135.714 17.0158 133.896 17.0158H119.359ZM3.79965 23.7065H18.2548C20.0721 23.7065 21.6415 22.2197 21.6415 20.3198V17.0158H7.10369C5.28647 17.0158 3.79965 18.5026 3.79965 20.3198V23.7065ZM61.5378 96.9736H65.9156V82.4358H61.5378V96.9736ZM23.3761 41.8787C22.7979 41.8787 22.1371 41.5483 21.8067 40.8875L17.0158 32.6274C15.7768 30.4798 18.9982 28.6626 20.2373 30.7276L25.0281 39.0703C25.7715 40.3093 24.8629 41.8787 23.3761 41.8787ZM12.7206 43.1177C11.6467 43.1177 10.8207 42.2917 10.8207 41.2179V31.7188C10.8207 29.2408 14.5378 29.2408 14.5378 31.7188V41.2179C14.5378 42.2917 13.7118 43.1177 12.7206 43.1177ZM1.98243 41.8787C0.495606 41.8787 -0.413005 40.3093 0.330404 39.0703L5.12127 30.7276C6.36028 28.6626 9.58172 30.4798 8.34271 32.6274L3.55185 40.8875C3.22144 41.5483 2.56063 41.8787 1.98243 41.8787ZM117.541 41.8787C116.137 41.8787 115.228 40.3093 115.972 39.0703L120.68 30.7276C121.919 28.6626 125.223 30.4798 123.984 32.6274L119.193 40.8875C118.863 41.5483 118.202 41.8787 117.541 41.8787ZM128.279 43.1177C127.288 43.1177 126.38 42.2917 126.38 41.2179V31.7188C126.38 29.2408 130.179 29.2408 130.179 31.7188V41.2179C130.179 42.2917 129.353 43.1177 128.279 43.1177Z"/>
</mask>
<path fill-rule="evenodd" clip-rule="evenodd" d="M139.018 41.8787C138.357 41.8787 137.779 41.5483 137.366 40.8875L132.657 32.6274C131.418 30.4798 134.64 28.6626 135.879 30.7276L140.67 39.0703C141.413 40.3093 140.422 41.8787 139.018 41.8787ZM57.8207 120.432V57.1599C57.8207 54.5993 61.2074 55.2601 64.0984 55.2601V35.601C59.4728 19.0808 39.8137 17.0984 38.5747 17.0158H25.3585V20.3198C25.3585 24.2847 22.2197 27.4235 18.2548 27.4235H1.89982C0.826011 27.4235 0 26.5975 0 25.5237V20.3198C0 16.4376 3.22144 13.2162 7.10369 13.2162L38.8225 13.2988C38.9877 13.2988 55.6731 14.6204 64.0984 26.7627V9.74691C64.0984 8.7557 64.9244 7.92969 65.9156 7.92969H75.0018C76.0756 7.92969 76.9016 8.7557 76.9016 9.74691V26.7627C85.3269 14.5378 102.012 13.2162 102.26 13.2162H133.896C137.779 13.2162 141 16.4376 141 20.3198V25.5237C141 26.5975 140.091 27.4235 139.1 27.4235H122.663C118.78 27.4235 115.641 24.2847 115.641 20.3198V17.0158H102.343C101.186 17.0984 81.5272 19.0808 76.9016 35.601V55.2601C79.7926 55.2601 83.1793 54.5993 83.1793 57.1599V120.432H95.9824C97.0562 120.432 97.8822 121.258 97.8822 122.332V131.17C97.8822 132.244 97.0562 133.07 95.9824 133.07H44.935C43.9438 133.07 43.0351 132.244 43.0351 131.17V122.332C43.0351 121.258 43.9438 120.432 44.935 120.432H57.8207ZM79.3796 120.432V58.9771H61.5378V78.6362H67.8155C68.8893 78.6362 69.7153 79.5448 69.7153 80.536V98.8735C69.7153 99.9473 68.8893 100.773 67.8155 100.773H61.5378V120.432H79.3796ZM46.8348 129.353H94.1652V124.149H46.8348V129.353ZM67.8155 55.2601H73.1845V11.6467H67.8155V55.2601ZM119.359 17.0158V20.3198C119.359 22.2197 120.845 23.7065 122.663 23.7065H137.2V20.3198C137.2 18.5026 135.714 17.0158 133.896 17.0158H119.359ZM3.79965 23.7065H18.2548C20.0721 23.7065 21.6415 22.2197 21.6415 20.3198V17.0158H7.10369C5.28647 17.0158 3.79965 18.5026 3.79965 20.3198V23.7065ZM61.5378 96.9736H65.9156V82.4358H61.5378V96.9736ZM23.3761 41.8787C22.7979 41.8787 22.1371 41.5483 21.8067 40.8875L17.0158 32.6274C15.7768 30.4798 18.9982 28.6626 20.2373 30.7276L25.0281 39.0703C25.7715 40.3093 24.8629 41.8787 23.3761 41.8787ZM12.7206 43.1177C11.6467 43.1177 10.8207 42.2917 10.8207 41.2179V31.7188C10.8207 29.2408 14.5378 29.2408 14.5378 31.7188V41.2179C14.5378 42.2917 13.7118 43.1177 12.7206 43.1177ZM1.98243 41.8787C0.495606 41.8787 -0.413005 40.3093 0.330404 39.0703L5.12127 30.7276C6.36028 28.6626 9.58172 30.4798 8.34271 32.6274L3.55185 40.8875C3.22144 41.5483 2.56063 41.8787 1.98243 41.8787ZM117.541 41.8787C116.137 41.8787 115.228 40.3093 115.972 39.0703L120.68 30.7276C121.919 28.6626 125.223 30.4798 123.984 32.6274L119.193 40.8875C118.863 41.5483 118.202 41.8787 117.541 41.8787ZM128.279 43.1177C127.288 43.1177 126.38 42.2917 126.38 41.2179V31.7188C126.38 29.2408 130.179 29.2408 130.179 31.7188V41.2179C130.179 42.2917 129.353 43.1177 128.279 43.1177Z" fill="#15711D" stroke="#0D0D0D" stroke-width="2" mask="url(#path-1-inside-1_1_319)"/>
</svg>
