<svg width="171" height="54" viewBox="0 0 171 54" fill="none" xmlns="http://www.w3.org/2000/svg">
<path fill-rule="evenodd" clip-rule="evenodd" d="M7.5282 23.8622L21.2535 23.8764C23.4489 23.8905 25.8002 24.1313 26.8342 22.5449C27.5849 21.4118 27.7124 18.4798 26.0127 17.4599C24.6671 16.6667 21.4659 16.9217 19.6954 16.9217C17.4008 16.9217 15.1109 16.9217 12.8257 16.9217C10.7152 16.9217 8.29308 17.0492 6.31007 16.6242C2.71232 15.831 0.120245 13.3806 0.00693063 9.23044C-0.120549 4.58453 1.50835 1.96413 5.07777 0.661007C7.03245 -0.047211 9.14294 0.0377716 11.3242 0.0377716C18.109 0.0377716 25.1487 -0.0472145 31.8767 0.0377716L31.8626 5.22192C29.6388 5.30691 27.245 5.22193 24.9929 5.20776L11.2676 5.1936C8.9588 5.17944 7.06078 5.27858 6.52254 7.34658C6.28174 8.30975 6.36672 9.54206 6.81998 10.3353C7.21659 11.0151 7.91064 11.4542 8.90215 11.6525C9.93614 11.865 21.2251 11.7375 22.5424 11.7375C24.7804 11.7375 26.6926 11.695 28.6756 12.4174C32.0609 13.6214 33.9731 16.4684 33.7464 21.0293C33.5198 25.3495 31.381 27.6866 27.6699 28.6923C25.8427 29.188 23.194 29.0605 21.1826 29.0605H7.45738C5.8993 29.0605 1.91912 29.1314 0.658488 29.0464L0.672657 23.8622C1.73498 23.7772 6.11177 23.8622 7.5282 23.8622ZM37.7549 0.221906L44.1714 0.236076V11.9358H64.3556V0.221906H70.7721L70.7579 28.8622H64.3556V17.1625L44.1714 17.1766L44.1572 28.8481L37.7549 28.8622V0.221906ZM86.8344 0.221906H96.6503C96.8628 0.2644 97.047 0.830976 97.1603 1.1001L98.3642 3.77717C98.9166 4.93864 99.4266 6.12844 99.979 7.33241C101.07 9.71203 102.16 12.1058 103.208 14.5137C103.733 15.7319 104.271 16.9217 104.823 18.1257C105.163 18.8622 109.568 28.5081 109.639 28.8481L102.84 28.8622C102.585 28.8622 102.231 27.8566 102.047 27.4316L99.979 22.8141H83.6616L80.9421 28.8622L73.9732 28.8481L86.8344 0.221906ZM97.6135 17.6016L92.0753 5.23609C91.3387 5.20776 91.5937 5.17944 90.8996 6.68086L87.401 14.4571C86.9619 15.4344 86.4945 16.6101 86.0129 17.5732C86.6362 17.6724 96.1404 17.6157 97.6135 17.6016ZM146.084 1.96412C146.226 1.66667 146.353 1.36922 146.481 1.07177C146.594 0.802645 146.778 0.2644 146.962 0.221906H156.693C156.891 0.292728 158.194 3.39472 158.379 3.80549C161.098 9.71202 163.719 15.831 166.438 21.7092C167.005 22.899 167.5 24.0888 168.053 25.2645C168.294 25.7744 169.583 28.494 169.625 28.8622L162.699 28.8481C162.415 28.2532 160.078 22.8707 159.88 22.8141H143.775C143.478 22.9699 143.152 23.9614 142.996 24.3013L140.928 28.8622L134.002 28.8481L146.084 1.96412ZM146.013 17.6016L146.282 17.6157C147.826 17.6299 156.566 17.6724 157.614 17.5874C157.387 16.9217 153.874 9.2446 153.435 8.26726L152.373 5.91598C152.104 5.32108 152.217 5.23609 151.721 5.23609C151.424 5.23609 151.155 6.14261 150.914 6.66669L146.013 17.6016Z" fill="#0E4E14"/>
<path fill-rule="evenodd" clip-rule="evenodd" d="M75.3621 36.9069H169.64V32.9975H75.3763L75.3621 36.9069Z" fill="#8A2F14"/>
<path fill-rule="evenodd" clip-rule="evenodd" d="M118.648 28.8488L125.064 28.863C125.135 28.2681 125.093 20.7326 125.093 19.3587C125.093 18.7071 125.008 18.6646 125.348 18.268L132.741 9.28784C133.152 8.76376 133.535 8.29634 133.974 7.78642C135.773 5.67593 137.685 3.23966 139.484 1.05835C139.739 0.760902 139.965 0.562597 140.135 0.222653H132.203C132.104 0.435118 131.764 0.845883 131.58 1.04418C131.339 1.32747 131.155 1.56827 130.957 1.83739C130.518 2.40397 130.093 2.89972 129.654 3.46629C129.129 4.11785 122.104 12.9422 121.807 13.1547L120.546 11.5683C120.093 11.0159 119.71 10.5201 119.243 9.95357L114.016 3.48045C113.563 2.92804 113.18 2.4323 112.713 1.86572C112.43 1.51161 111.594 0.534269 111.438 0.222653H103.506C103.846 0.860049 115.376 14.5995 117.047 16.71L118.308 18.2397C118.662 18.6363 118.634 18.5797 118.634 19.2879C118.62 21.3842 118.535 27.6165 118.648 28.8488Z" fill="#0E4E14"/>
<path d="M167.285 50.1612C166.664 50.1612 166.133 50.0922 165.692 49.9541C165.251 49.8161 164.888 49.6701 164.601 49.5161L164.776 48.0029C165.047 48.1887 165.389 48.3693 165.803 48.5445C166.223 48.7144 166.695 48.7993 167.221 48.7993C167.678 48.7993 168.026 48.725 168.264 48.5763C168.509 48.4223 168.631 48.1967 168.631 47.8994C168.631 47.6551 168.559 47.4587 168.416 47.31C168.272 47.156 168.084 47.0286 167.85 46.9277C167.617 46.8268 167.37 46.7339 167.11 46.649C166.701 46.5162 166.313 46.3622 165.947 46.187C165.586 46.0118 165.291 45.7782 165.063 45.4862C164.84 45.1888 164.728 44.7959 164.728 44.3075C164.728 43.8827 164.835 43.4925 165.047 43.1367C165.259 42.781 165.58 42.4996 166.011 42.2925C166.446 42.0801 166.998 41.9739 167.667 41.9739C168.177 41.9739 168.61 42.0297 168.965 42.1412C169.326 42.2474 169.648 42.3748 169.929 42.5235L169.754 43.9969C169.472 43.7792 169.167 43.5986 168.838 43.4553C168.514 43.3066 168.134 43.2323 167.699 43.2323C167.295 43.2323 166.974 43.3119 166.735 43.4712C166.496 43.6252 166.377 43.8615 166.377 44.18C166.377 44.5198 166.518 44.7667 166.799 44.9207C167.08 45.0747 167.518 45.2526 168.113 45.4543C168.384 45.5446 168.649 45.6534 168.91 45.7809C169.17 45.903 169.406 46.0516 169.618 46.2269C169.836 46.4021 170.009 46.6198 170.136 46.8799C170.263 47.1401 170.327 47.4507 170.327 47.8117C170.327 48.2259 170.226 48.6108 170.025 48.9666C169.828 49.3223 169.507 49.6117 169.061 49.8347C168.62 50.0524 168.028 50.1612 167.285 50.1612Z" fill="#242424"/>
<path d="M162.657 50.1617C162.169 50.1617 161.776 50.0688 161.479 49.883C161.181 49.6972 160.963 49.4556 160.825 49.1582C160.693 48.8556 160.626 48.5344 160.626 48.1946V38.056H162.291V47.3742C162.291 47.8096 162.317 48.1308 162.371 48.3379C162.429 48.5397 162.538 48.6698 162.697 48.7282C162.862 48.7866 163.103 48.8158 163.422 48.8158L163.231 50.1617H162.657Z" fill="#242424"/>
<path d="M154.757 50.1612C153.923 50.1612 153.209 49.978 152.614 49.6117C152.025 49.24 151.574 48.7462 151.26 48.1303C150.952 47.5091 150.798 46.8242 150.798 46.0755C150.798 45.3216 150.952 44.634 151.26 44.0128C151.574 43.3916 152.025 42.8978 152.614 42.5314C153.209 42.1598 153.923 41.9739 154.757 41.9739C155.596 41.9739 156.31 42.1598 156.899 42.5314C157.494 42.8978 157.945 43.3916 158.253 44.0128C158.566 44.634 158.723 45.3216 158.723 46.0755C158.723 46.8242 158.566 47.5091 158.253 48.1303C157.945 48.7462 157.494 49.24 156.899 49.6117C156.31 49.978 155.596 50.1612 154.757 50.1612ZM154.757 48.7356C155.489 48.7356 156.049 48.4967 156.437 48.0188C156.83 47.541 157.026 46.8932 157.026 46.0755C157.026 45.2526 156.83 44.5995 156.437 44.1163C156.049 43.6332 155.489 43.3916 154.757 43.3916C154.035 43.3916 153.477 43.6332 153.084 44.1163C152.691 44.5995 152.495 45.2526 152.495 46.0755C152.495 46.8932 152.691 47.541 153.084 48.0188C153.477 48.4967 154.035 48.7356 154.757 48.7356Z" fill="#242424"/>
<path d="M145.834 50.0019V42.1332H147.299L147.418 43.2323C147.737 42.85 148.077 42.5447 148.438 42.3164C148.804 42.0881 149.2 41.9739 149.625 41.9739C149.752 41.9739 149.872 41.9872 149.983 42.0137L149.84 43.742C149.749 43.7208 149.656 43.7048 149.561 43.6942C149.471 43.6836 149.375 43.6783 149.274 43.6783C148.892 43.6783 148.541 43.7659 148.223 43.9411C147.91 44.111 147.687 44.3048 147.554 44.5225V50.0019H145.834Z" fill="#242424"/>
<path d="M142.596 50.1618C142.103 50.1618 141.702 50.0662 141.394 49.875C141.091 49.6839 140.868 49.4397 140.725 49.1423C140.587 48.845 140.518 48.5317 140.518 48.2025V43.4638H139.267L139.419 42.1338H140.518V40.2781L142.182 40.1029V42.1338H144.11V43.4638H142.182V47.3583C142.182 47.8149 142.209 48.1468 142.262 48.3539C142.315 48.5556 142.445 48.6831 142.652 48.7362C142.859 48.7892 143.188 48.8158 143.64 48.8158H144.086L143.942 50.1618H142.596Z" fill="#242424"/>
<path d="M130.724 50.0018V42.1331H132.15L132.349 43.6224L131.839 43.2242C132.27 42.7782 132.718 42.4596 133.185 42.2685C133.653 42.0773 134.141 41.9817 134.651 41.9817C135.739 41.9817 136.53 42.3162 137.024 42.9852C137.518 43.6489 137.765 44.533 137.765 45.6373V50.0018H136.1V45.709C136.1 44.9179 135.96 44.3365 135.678 43.9648C135.397 43.5932 134.922 43.4073 134.253 43.4073C133.759 43.4073 133.323 43.5215 132.947 43.7498C132.575 43.9728 132.304 44.3073 132.134 44.7533L132.389 43.8374V50.0018H130.724Z" fill="#242424"/>
<path d="M124.845 50.1612C124.011 50.1612 123.297 49.978 122.703 49.6117C122.113 49.24 121.662 48.7462 121.349 48.1303C121.041 47.5091 120.887 46.8242 120.887 46.0755C120.887 45.3216 121.041 44.634 121.349 44.0128C121.662 43.3916 122.113 42.8978 122.703 42.5314C123.297 42.1598 124.011 41.9739 124.845 41.9739C125.684 41.9739 126.398 42.1598 126.987 42.5314C127.582 42.8978 128.033 43.3916 128.341 44.0128C128.655 44.634 128.811 45.3216 128.811 46.0755C128.811 46.8242 128.655 47.5091 128.341 48.1303C128.033 48.7462 127.582 49.24 126.987 49.6117C126.398 49.978 125.684 50.1612 124.845 50.1612ZM124.845 48.7356C125.578 48.7356 126.138 48.4967 126.525 48.0188C126.918 47.541 127.115 46.8932 127.115 46.0755C127.115 45.2526 126.918 44.5995 126.525 44.1163C126.138 43.6332 125.578 43.3916 124.845 43.3916C124.123 43.3916 123.565 43.6332 123.173 44.1163C122.78 44.5995 122.583 45.2526 122.583 46.0755C122.583 46.8932 122.78 47.541 123.173 48.0188C123.565 48.4967 124.123 48.7356 124.845 48.7356Z" fill="#242424"/>
<path d="M116.616 50.2243C115.512 50.2243 114.532 49.9854 113.677 49.5075C112.828 49.0296 112.161 48.358 111.678 47.4925C111.195 46.6218 110.953 45.5997 110.953 44.4263C110.953 43.2529 111.198 42.2334 111.686 41.368C112.18 40.4972 112.859 39.8229 113.725 39.3451C114.59 38.8672 115.575 38.6283 116.68 38.6283C117.253 38.6283 117.792 38.6893 118.296 38.8115C118.801 38.9336 119.241 39.0902 119.618 39.2813L119.427 40.914C119.029 40.7229 118.602 40.5636 118.145 40.4362C117.688 40.3087 117.195 40.245 116.664 40.245C115.825 40.245 115.124 40.4309 114.561 40.8025C113.998 41.1689 113.571 41.668 113.279 42.2998C112.992 42.9263 112.849 43.6352 112.849 44.4263C112.849 45.2174 112.99 45.9289 113.271 46.5607C113.558 47.1872 113.98 47.6863 114.537 48.058C115.1 48.4244 115.796 48.6075 116.624 48.6075C117.171 48.6075 117.667 48.5491 118.113 48.4323C118.565 48.3102 119.003 48.1483 119.427 47.9465L119.618 49.5792C119.21 49.765 118.753 49.919 118.249 50.0411C117.75 50.1632 117.205 50.2243 116.616 50.2243Z" fill="#242424"/>
<path d="M100.142 50.3762C99.3452 50.3762 98.6788 50.2381 98.1426 49.962C97.6063 49.6859 97.2028 49.3222 96.932 48.8709C96.6612 48.4143 96.5258 47.9179 96.5258 47.3816C96.5258 46.9409 96.6028 46.5321 96.7568 46.1551C96.9108 45.7781 97.1338 45.4277 97.4258 45.1038C97.7231 44.7799 98.0815 44.4667 98.501 44.164C98.1027 43.6702 97.8028 43.2003 97.601 42.7543C97.4045 42.3083 97.3063 41.873 97.3063 41.4482C97.3063 40.896 97.4417 40.4235 97.7125 40.0306C97.9886 39.6323 98.3496 39.3297 98.7956 39.1226C99.247 38.9102 99.7328 38.8041 100.253 38.8041C101.14 38.8041 101.801 39.0164 102.236 39.4412C102.677 39.8607 102.897 40.3943 102.897 41.042C102.897 41.5093 102.778 41.9261 102.539 42.2924C102.3 42.6588 101.989 42.9986 101.607 43.3118C101.225 43.6251 100.819 43.9304 100.388 44.2277L103.08 47.1028C103.16 46.9382 103.226 46.7391 103.28 46.5055C103.333 46.2719 103.375 46.025 103.407 45.7648C103.439 45.5047 103.46 45.2551 103.471 45.0162C103.487 44.7773 103.497 44.5729 103.503 44.403H105.048C105.042 44.7109 105.016 45.0852 104.968 45.5259C104.925 45.9613 104.838 46.4206 104.705 46.9037C104.572 47.3816 104.379 47.8382 104.124 48.2736L105.629 50.0018H103.813L103.2 49.3488C102.765 49.7045 102.305 49.9647 101.822 50.1293C101.344 50.2939 100.784 50.3762 100.142 50.3762ZM100.277 49.1098C100.765 49.1098 101.177 49.0382 101.511 48.8948C101.846 48.7515 102.13 48.563 102.364 48.3293L99.2894 45.1038C98.9709 45.364 98.708 45.6746 98.501 46.0356C98.2939 46.3967 98.1904 46.8002 98.1904 47.2462C98.1904 47.5701 98.2567 47.8754 98.3895 48.1621C98.5275 48.4435 98.7479 48.6718 99.0505 48.847C99.3531 49.0222 99.762 49.1098 100.277 49.1098ZM99.6876 43.3596C100.049 43.1101 100.357 42.8738 100.611 42.6508C100.872 42.4278 101.071 42.2022 101.209 41.9738C101.352 41.7402 101.424 41.4774 101.424 41.1854C101.424 40.8296 101.315 40.5615 101.097 40.381C100.885 40.1952 100.596 40.1022 100.229 40.1022C99.8629 40.1022 99.5443 40.219 99.2735 40.4527C99.008 40.6863 98.8753 41.0367 98.8753 41.504C98.8753 41.7535 98.9337 42.0296 99.0505 42.3322C99.1673 42.6296 99.3797 42.972 99.6876 43.3596Z" fill="#242424"/>
<path d="M87.5966 54C86.8745 54 86.2347 53.9097 85.6772 53.7292C85.1197 53.5487 84.6817 53.2859 84.3631 52.9408C84.0498 52.6009 83.8932 52.1841 83.8932 51.6904C83.8932 51.2762 84.01 50.9152 84.2436 50.6072C84.4773 50.3046 84.8038 50.0497 85.2233 49.8426C84.9896 49.7152 84.8065 49.5639 84.6737 49.3887C84.5463 49.2082 84.4826 49.009 84.4826 48.7914C84.4826 48.5471 84.5542 48.3294 84.6976 48.1383C84.8463 47.9471 85.0666 47.7905 85.3586 47.6684C84.9339 47.3923 84.61 47.0259 84.387 46.5693C84.164 46.1127 84.0525 45.611 84.0525 45.0641C84.0525 44.496 84.1773 43.9783 84.4268 43.511C84.6817 43.0385 85.048 42.6642 85.5259 42.3881C86.0091 42.112 86.5931 41.9739 87.278 41.9739C87.6391 41.9739 87.9762 42.0244 88.2895 42.1252C88.6081 42.2208 88.8948 42.3562 89.1496 42.5314C89.3567 42.4146 89.6169 42.3164 89.9301 42.2367C90.2487 42.1518 90.6018 42.1093 90.9894 42.1093C91.0425 42.1093 91.0929 42.1093 91.1407 42.1093C91.1885 42.1093 91.2363 42.1093 91.2841 42.1093L91.1248 43.1845C91.0398 43.1845 90.9549 43.1845 90.8699 43.1845C90.785 43.1845 90.7 43.1845 90.6151 43.1845C90.562 43.1845 90.4638 43.1898 90.3204 43.2004C90.177 43.211 90.039 43.2296 89.9063 43.2562C90.1027 43.511 90.2514 43.7924 90.3522 44.1004C90.4531 44.4083 90.5036 44.7296 90.5036 45.0641C90.5036 45.6534 90.3761 46.1844 90.1213 46.6569C89.8717 47.1295 89.5054 47.5065 89.0222 47.7879C88.5444 48.0693 87.963 48.21 87.278 48.21C87.1081 48.21 86.9409 48.1993 86.7763 48.1781C86.617 48.1516 86.463 48.1197 86.3144 48.0825C86.1232 48.1462 86.0276 48.2604 86.0276 48.425C86.0276 48.5524 86.1046 48.6586 86.2586 48.7436C86.4126 48.8232 86.6568 48.8896 86.9913 48.9427L88.7753 49.2055C89.6248 49.3329 90.2832 49.5772 90.7505 49.9382C91.223 50.2993 91.4593 50.8143 91.4593 51.4833C91.4593 52.0195 91.3027 52.4735 90.9894 52.8452C90.6814 53.2222 90.2381 53.5089 89.6594 53.7053C89.0806 53.9018 88.393 54 87.5966 54ZM87.7081 52.6301C88.4143 52.6301 88.9532 52.5399 89.3249 52.3594C89.6965 52.1841 89.8824 51.9187 89.8824 51.5629C89.8824 51.2656 89.7602 51.0399 89.516 50.886C89.2718 50.732 88.9054 50.6125 88.4169 50.5276L86.394 50.209C86.1179 50.3258 85.879 50.4824 85.6772 50.6789C85.4808 50.8807 85.3825 51.1249 85.3825 51.4116C85.3825 51.8311 85.5896 52.139 86.0037 52.3355C86.4232 52.5319 86.9913 52.6301 87.7081 52.6301ZM87.278 46.9277C87.8302 46.9277 88.247 46.7578 88.5284 46.418C88.8151 46.0729 88.9585 45.6242 88.9585 45.072C88.9585 44.5305 88.8151 44.0924 88.5284 43.7579C88.247 43.4181 87.8302 43.2482 87.278 43.2482C86.7258 43.2482 86.3064 43.4181 86.0197 43.7579C85.7383 44.0924 85.5976 44.5305 85.5976 45.072C85.5976 45.6242 85.7383 46.0729 86.0197 46.418C86.3064 46.7578 86.7258 46.9277 87.278 46.9277Z" fill="#242424"/>
<path d="M75.1121 50.0018V42.1331H76.5377L76.7368 43.6224L76.2271 43.2242C76.6572 42.7782 77.1058 42.4596 77.5731 42.2685C78.0403 42.0773 78.5288 41.9817 79.0385 41.9817C80.127 41.9817 80.9181 42.3162 81.4119 42.9852C81.9056 43.6489 82.1525 44.533 82.1525 45.6373V50.0018H80.488V45.709C80.488 44.9179 80.3473 44.3365 80.0659 43.9648C79.7845 43.5932 79.3093 43.4073 78.6403 43.4073C78.1465 43.4073 77.7111 43.5215 77.3341 43.7498C76.9625 43.9728 76.6917 44.3073 76.5218 44.7533L76.7766 43.8374V50.0018H75.1121Z" fill="#242424"/>
<path d="M71.0731 50.0029V42.1342H72.7376V50.0029H71.0731ZM71.0731 40.605V38.8529H72.7376V40.605H71.0731Z" fill="#242424"/>
<path d="M67.834 50.1616C67.3402 50.1616 66.9394 50.066 66.6314 49.8749C66.3288 49.6837 66.1058 49.4395 65.9624 49.1422C65.8244 48.8448 65.7553 48.5316 65.7553 48.2024V43.4636H64.5049L64.6563 42.1336H65.7553V40.2779L67.4199 40.1027V42.1336H69.3472V43.4636H67.4199V47.3582C67.4199 47.8148 67.4464 48.1466 67.4995 48.3537C67.5526 48.5555 67.6827 48.6829 67.8898 48.736C68.0968 48.7891 68.426 48.8156 68.8773 48.8156H69.3233L69.18 50.1616H67.834Z" fill="#242424"/>
<path d="M56.1007 50.0025V38.056H57.7732V43.4001L57.2953 43.2328C57.6458 42.8718 58.0254 42.5744 58.4342 42.3408C58.8484 42.1019 59.3608 41.9824 59.9713 41.9824C60.6563 41.9824 61.2217 42.1364 61.6677 42.4443C62.1137 42.747 62.4456 43.1717 62.6633 43.7186C62.881 44.2655 62.9898 44.9 62.9898 45.6221V50.0025H61.3253V45.7814C61.3253 44.969 61.1846 44.3717 60.9032 43.9894C60.6218 43.6018 60.1784 43.408 59.5731 43.408C59.09 43.408 58.6758 43.5301 58.3307 43.7744C57.9909 44.0186 57.7095 44.3452 57.4865 44.754L57.7732 43.7983V50.0025H56.1007Z" fill="#242424"/>
<path d="M50.8433 54C50.1212 54 49.4814 53.9097 48.9239 53.7292C48.3664 53.5487 47.9284 53.2859 47.6098 52.9408C47.2965 52.6009 47.1399 52.1841 47.1399 51.6904C47.1399 51.2762 47.2567 50.9152 47.4903 50.6072C47.724 50.3046 48.0505 50.0497 48.4699 49.8426C48.2363 49.7152 48.0532 49.5639 47.9204 49.3887C47.793 49.2082 47.7293 49.009 47.7293 48.7914C47.7293 48.5471 47.8009 48.3294 47.9443 48.1383C48.093 47.9471 48.3133 47.7905 48.6053 47.6684C48.1806 47.3923 47.8567 47.0259 47.6337 46.5693C47.4107 46.1127 47.2992 45.611 47.2992 45.0641C47.2992 44.496 47.424 43.9783 47.6735 43.511C47.9284 43.0385 48.2947 42.6642 48.7726 42.3881C49.2558 42.112 49.8398 41.9739 50.5247 41.9739C50.8858 41.9739 51.2229 42.0244 51.5362 42.1252C51.8548 42.2208 52.1415 42.3562 52.3963 42.5314C52.6034 42.4146 52.8636 42.3164 53.1768 42.2367C53.4954 42.1518 53.8485 42.1093 54.2361 42.1093C54.2892 42.1093 54.3396 42.1093 54.3874 42.1093C54.4352 42.1093 54.483 42.1093 54.5308 42.1093L54.3715 43.1845C54.2865 43.1845 54.2016 43.1845 54.1166 43.1845C54.0317 43.1845 53.9467 43.1845 53.8618 43.1845C53.8087 43.1845 53.7104 43.1898 53.5671 43.2004C53.4237 43.211 53.2857 43.2296 53.1529 43.2562C53.3494 43.511 53.4981 43.7924 53.599 44.1004C53.6998 44.4083 53.7503 44.7296 53.7503 45.0641C53.7503 45.6534 53.6228 46.1844 53.368 46.6569C53.1184 47.1295 52.7521 47.5065 52.2689 47.7879C51.7911 48.0693 51.2097 48.21 50.5247 48.21C50.3548 48.21 50.1876 48.1993 50.023 48.1781C49.8637 48.1516 49.7097 48.1197 49.5611 48.0825C49.3699 48.1462 49.2743 48.2604 49.2743 48.425C49.2743 48.5524 49.3513 48.6586 49.5053 48.7436C49.6593 48.8232 49.9035 48.8896 50.238 48.9427L52.022 49.2055C52.8715 49.3329 53.5299 49.5772 53.9972 49.9382C54.4697 50.2993 54.706 50.8143 54.706 51.4833C54.706 52.0195 54.5494 52.4735 54.2361 52.8452C53.9281 53.2222 53.4848 53.5089 52.9061 53.7053C52.3273 53.9018 51.6397 54 50.8433 54ZM50.9548 52.6301C51.661 52.6301 52.1999 52.5399 52.5716 52.3594C52.9432 52.1841 53.1291 51.9187 53.1291 51.5629C53.1291 51.2656 53.0069 51.0399 52.7627 50.886C52.5185 50.732 52.1521 50.6125 51.6636 50.5276L49.6407 50.209C49.3646 50.3258 49.1257 50.4824 48.9239 50.6789C48.7275 50.8807 48.6292 51.1249 48.6292 51.4116C48.6292 51.8311 48.8363 52.139 49.2504 52.3355C49.6699 52.5319 50.238 52.6301 50.9548 52.6301ZM50.5247 46.9277C51.0769 46.9277 51.4937 46.7578 51.7751 46.418C52.0618 46.0729 52.2052 45.6242 52.2052 45.072C52.2052 44.5305 52.0618 44.0924 51.7751 43.7579C51.4937 43.4181 51.0769 43.2482 50.5247 43.2482C49.9725 43.2482 49.5531 43.4181 49.2664 43.7579C48.985 44.0924 48.8443 44.5305 48.8443 45.072C48.8443 45.6242 48.985 46.0729 49.2664 46.418C49.5531 46.7578 49.9725 46.9277 50.5247 46.9277Z" fill="#242424"/>
<path d="M43.6517 50.0029V42.1342H45.3162V50.0029H43.6517ZM43.6517 40.605V38.8529H45.3162V40.605H43.6517Z" fill="#242424"/>
<path d="M35.4958 50.0028V38.8528H37.232V48.4418H42.1221V50.0028H35.4958Z" fill="#242424"/>
</svg>
