<svg width="79" height="79" viewBox="0 0 79 79" fill="none" xmlns="http://www.w3.org/2000/svg">
<path d="M71.5938 22.2188H7.40625V56.7812H71.5938V22.2188Z" stroke="black" stroke-width="1.5" stroke-miterlimit="10" stroke-linejoin="round"/>
<path d="M39.5 49.375C44.9538 49.375 49.375 44.9538 49.375 39.5C49.375 34.0462 44.9538 29.625 39.5 29.625C34.0462 29.625 29.625 34.0462 29.625 39.5C29.625 44.9538 34.0462 49.375 39.5 49.375Z" stroke="black" stroke-width="1.5" stroke-miterlimit="10" stroke-linejoin="round"/>
<path d="M17.2812 22.2188C17.2812 27.65 12.8375 32.0938 7.40625 32.0938" stroke="black" stroke-width="1.5" stroke-miterlimit="10" stroke-linejoin="round"/>
<path d="M7.40625 46.9062C12.8375 46.9062 17.2812 51.35 17.2812 56.7812" stroke="black" stroke-width="1.5" stroke-miterlimit="10" stroke-linejoin="round"/>
<path d="M61.7188 22.2188C61.7188 27.65 66.1625 32.0938 71.5938 32.0938" stroke="black" stroke-width="1.5" stroke-miterlimit="10" stroke-linejoin="round"/>
<path d="M71.5938 46.9062C66.1625 46.9062 61.7188 51.35 61.7188 56.7812" stroke="black" stroke-width="1.5" stroke-miterlimit="10" stroke-linejoin="round"/>
</svg>
