<svg width="19" height="22" viewBox="0 0 19 22" fill="none" xmlns="http://www.w3.org/2000/svg">
<g clip-path="url(#clip0_489_418)">
<path d="M9.68304 6.5939C7.15477 6.5939 5.11546 8.63322 5.11546 11.1615C5.11546 13.6898 7.15477 15.7291 9.68304 15.7291C12.2113 15.7291 14.2506 13.6898 14.2506 11.1615C14.2506 8.63322 12.2113 6.5939 9.68304 6.5939ZM9.68304 14.131C8.0492 14.131 6.71351 12.7993 6.71351 11.1615C6.71351 9.52367 8.04523 8.19196 9.68304 8.19196C11.3208 8.19196 12.6526 9.52367 12.6526 11.1615C12.6526 12.7993 11.3169 14.131 9.68304 14.131ZM15.5028 6.40707C15.5028 6.99938 15.0258 7.47244 14.4375 7.47244C13.8451 7.47244 13.3721 6.99541 13.3721 6.40707C13.3721 5.81873 13.8491 5.34169 14.4375 5.34169C15.0258 5.34169 15.5028 5.81873 15.5028 6.40707ZM18.528 7.48834C18.4604 6.06122 18.1345 4.79708 17.089 3.75556C16.0474 2.71404 14.7833 2.38807 13.3562 2.31652C11.8853 2.23304 7.47677 2.23304 6.00592 2.31652C4.58277 2.3841 3.31864 2.71007 2.27314 3.75159C1.22765 4.79311 0.90565 6.05724 0.834095 7.48436C0.750614 8.95521 0.750614 13.3638 0.834095 14.8346C0.901674 16.2618 1.22765 17.5259 2.27314 18.5674C3.31864 19.6089 4.5788 19.9349 6.00592 20.0065C7.47677 20.0899 11.8853 20.0899 13.3562 20.0065C14.7833 19.9389 16.0474 19.6129 17.089 18.5674C18.1305 17.5259 18.4565 16.2618 18.528 14.8346C18.6115 13.3638 18.6115 8.95919 18.528 7.48834ZM16.6278 16.4128C16.3178 17.192 15.7175 17.7922 14.9344 18.1063C13.7617 18.5714 10.979 18.4641 9.68304 18.4641C8.3871 18.4641 5.60044 18.5674 4.43171 18.1063C3.65256 17.7962 3.05229 17.1959 2.73825 16.4128C2.27314 15.2401 2.38047 12.4574 2.38047 11.1615C2.38047 9.86555 2.27712 7.07889 2.73825 5.91016C3.04832 5.13101 3.64858 4.53074 4.43171 4.21669C5.60441 3.75159 8.3871 3.85892 9.68304 3.85892C10.979 3.85892 13.7656 3.75556 14.9344 4.21669C15.7135 4.52676 16.3138 5.12703 16.6278 5.91016C17.0929 7.08286 16.9856 9.86555 16.9856 11.1615C16.9856 12.4574 17.0929 15.2441 16.6278 16.4128Z" fill="white"/>
</g>
<defs>
<clipPath id="clip0_489_418">
<path d="M0.773926 0.988281H18.5831V21.3416H0.773926V0.988281Z" fill="white"/>
</clipPath>
</defs>
</svg>
