<svg width="18" height="22" viewBox="0 0 18 22" fill="none" xmlns="http://www.w3.org/2000/svg">
<g clip-path="url(#clip0_489_424)">
<path d="M3.99714 18.7971H0.304912V6.90706H3.99714V18.7971ZM2.14904 5.28515C0.968384 5.28515 0.0107422 4.30723 0.0107422 3.12658C0.0107422 2.55947 0.236026 2.01558 0.637035 1.61457C1.03804 1.21357 1.58193 0.988281 2.14904 0.988281C2.71615 0.988281 3.26003 1.21357 3.66104 1.61457C4.06205 2.01558 4.28733 2.55947 4.28733 3.12658C4.28733 4.30723 3.32929 5.28515 2.14904 5.28515ZM17.816 18.7971H14.1317V13.0091C14.1317 11.6297 14.1039 9.86068 12.212 9.86068C10.2924 9.86068 9.9982 11.3594 9.9982 12.9097V18.7971H6.30995V6.90706H9.85112V8.52896H9.9028C10.3957 7.59478 11.5998 6.60891 13.3963 6.60891C17.133 6.60891 17.8199 9.0696 17.8199 12.2657V18.7971H17.816Z" fill="white"/>
</g>
<defs>
<clipPath id="clip0_489_424">
<path d="M0.0107422 0.988281H17.8199V21.3416H0.0107422V0.988281Z" fill="white"/>
</clipPath>
</defs>
</svg>
