<svg width="32" height="32" viewBox="0 0 32 32" fill="none" xmlns="http://www.w3.org/2000/svg">
<path fill-rule="evenodd" clip-rule="evenodd" d="M22.2308 8.34053C22.074 8.23351 21.8801 8.19591 21.694 8.22644L11.8525 10.0332C11.4638 10.1045 11.2106 10.4768 11.2857 10.8638C11.3604 11.2514 11.7364 11.5079 12.1245 11.4362L20.2695 9.94051L11.3449 21.8785C11.1236 22.2028 11.2095 22.6471 11.5373 22.8708C11.8651 23.0945 12.3102 23.0125 12.5314 22.6882L21.4556 10.7508L23.0328 18.8798C23.1075 19.2674 23.4838 19.5234 23.8716 19.4522C24.2597 19.3805 24.5135 19.0087 24.4384 18.6216L22.5328 8.79885C22.4967 8.61324 22.3853 8.44852 22.2308 8.34053Z" fill="#0E4E14"/>
</svg>
