<svg width="110" height="110" viewBox="0 0 110 110" fill="none" xmlns="http://www.w3.org/2000/svg">
<g clip-path="url(#clip0_575_631)">
<path d="M55.0001 0.000677396C49.502 -0.155064 44.0295 0.806427 38.9138 2.82696C33.7981 4.84748 29.1456 7.88503 25.2379 11.7557C21.3301 15.6265 18.2485 20.2498 16.1793 25.3461C14.1102 30.4423 13.0967 35.9054 13.2001 41.4047C13.2001 76.0767 51.9201 108.153 53.5481 109.473C53.9465 109.814 54.4537 110.001 54.9781 110.001C55.5024 110.001 56.0096 109.814 56.4081 109.473C58.1241 107.933 96.8001 72.6447 96.8001 41.4047C96.9035 35.9054 95.8899 30.4423 93.8208 25.3461C91.7517 20.2498 88.67 15.6265 84.7622 11.7557C80.8545 7.88503 76.202 4.84748 71.0863 2.82696C65.9706 0.806427 60.4981 -0.155064 55.0001 0.000677396ZM55.0001 61.6007C51.084 61.6007 47.2559 60.4394 43.9998 58.2638C40.7437 56.0881 38.2059 52.9958 36.7072 49.3778C35.2086 45.7598 34.8165 41.7787 35.5805 37.9379C36.3445 34.0971 38.2303 30.569 40.9993 27.8C43.7684 25.0309 47.2964 23.1451 51.1373 22.3811C54.9781 21.6171 58.9592 22.0092 62.5772 23.5079C66.1952 25.0065 69.2875 27.5443 71.4632 30.8004C73.6388 34.0565 74.8001 37.8846 74.8001 41.8007C74.8001 47.052 72.714 52.0882 69.0008 55.8014C65.2875 59.5146 60.2513 61.6007 55.0001 61.6007Z" fill="#0E4E14"/>
</g>
<defs>
<clipPath id="clip0_575_631">
<rect width="110" height="110" fill="white"/>
</clipPath>
</defs>
</svg>
