<svg width="105" height="120" viewBox="0 0 105 120" fill="none" xmlns="http://www.w3.org/2000/svg">
<path d="M49.533 104.216C22.3636 104.216 0.259766 82.1646 0.259766 55.0593C0.259766 27.954 22.3636 5.90234 49.533 5.90234C76.7024 5.90234 98.8062 27.954 98.8062 55.059C98.8062 82.1641 76.7024 104.216 49.533 104.216ZM49.533 7.86945C23.4509 7.86945 2.23135 29.0387 2.23135 55.0593C2.23135 81.0802 23.4509 102.249 49.533 102.249C75.6151 102.249 96.8344 81.0802 96.8344 55.0593C96.8344 29.0387 75.6151 7.86945 49.533 7.86945Z" fill="#0E4E14"/>
<path d="M49.5339 89.9735C30.2431 89.9735 14.5488 74.311 14.5488 55.0588C14.5488 35.8178 30.2431 20.1641 49.5339 20.1641C68.829 20.1641 84.5266 35.8178 84.5266 55.0588C84.5266 74.311 68.8287 89.9735 49.5339 89.9735ZM49.5339 22.1309C31.3302 22.1309 16.5207 36.9023 16.5207 55.0588C16.5207 73.2263 31.3305 88.0067 49.5339 88.0067C67.7419 88.0067 82.555 73.2263 82.555 55.0588C82.5547 36.9023 67.7416 22.1309 49.5339 22.1309Z" fill="#0E4E14"/>
<path d="M49.5345 77.5959C37.0803 77.5959 26.9482 67.4869 26.9482 55.0616C26.9482 42.6363 37.0803 32.5273 49.5345 32.5273C61.9889 32.5273 72.121 42.6361 72.121 55.0616C72.121 67.4869 61.9887 77.5959 49.5345 77.5959ZM49.5345 34.4945C38.1676 34.4945 28.9198 43.7208 28.9198 55.0616C28.9198 66.4024 38.1676 75.6288 49.5345 75.6288C60.9016 75.6288 70.1494 66.4024 70.1494 55.0616C70.1494 43.7208 60.9013 34.4945 49.5345 34.4945Z" fill="#0E4E14"/>
<path d="M49.5327 65.7642C43.6146 65.7642 38.7998 60.9618 38.7998 55.0588C38.7998 49.1548 43.6146 44.3516 49.5327 44.3516C55.451 44.3516 60.2658 49.1548 60.2658 55.0588C60.2658 60.9618 55.451 65.7642 49.5327 65.7642ZM49.5327 46.3187C44.7017 46.3187 40.7714 50.2395 40.7714 55.0588C40.7714 59.8773 44.7017 63.7973 49.5327 63.7973C54.3636 63.7973 58.2942 59.8773 58.2942 55.0588C58.2942 50.2395 54.3636 46.3187 49.5327 46.3187Z" fill="#0E4E14"/>
<path d="M82.8931 119.94C82.8186 119.94 82.7432 119.932 82.6683 119.914L73.0091 117.658C72.7548 117.598 72.5344 117.44 72.3965 117.219L62.7294 101.693C62.5676 101.433 62.5364 101.113 62.6444 100.827C62.7529 100.54 62.9884 100.32 63.2817 100.232C65.5794 99.5404 67.8322 98.6648 69.9776 97.6296C70.434 97.4089 70.9844 97.5708 71.2486 98.0034L83.6863 118.365C83.8108 118.53 83.8848 118.735 83.8848 118.957C83.8848 119.498 83.4465 119.937 82.9049 119.94C82.9005 119.94 82.8969 119.94 82.8931 119.94ZM73.8558 115.835L80.8267 117.464L70.0259 99.7815C68.4196 100.519 66.7611 101.171 65.0735 101.729L73.8558 115.835Z" fill="#0E4E14"/>
<path d="M15.5454 119.94C15.2338 119.94 14.935 119.793 14.747 119.534C14.514 119.213 14.4967 118.784 14.7037 118.445L27.1905 98.0031C27.4544 97.5708 28.0045 97.4089 28.4615 97.6296C30.614 98.6681 32.8712 99.5434 35.1711 100.232C35.4652 100.32 35.7015 100.54 35.81 100.826C35.9186 101.113 35.8871 101.433 35.7248 101.693L26.0415 117.22C25.9036 117.441 25.6835 117.598 25.4294 117.658L15.7702 119.915C15.6954 119.931 15.62 119.94 15.5454 119.94ZM28.413 99.7813L17.6118 117.464L24.583 115.835L33.3793 101.731C31.6882 101.174 30.0249 100.521 28.413 99.7813Z" fill="#0E4E14"/>
<path d="M69.4551 111.506H39.1725C38.6281 111.506 38.1865 111.066 38.1865 110.523C38.1865 109.979 38.6278 109.539 39.1725 109.539H69.4551C69.9994 109.539 70.441 109.979 70.441 110.523C70.441 111.066 69.9994 111.506 69.4551 111.506Z" fill="#0E4E14"/>
<path d="M7.92831 56.045C7.38395 56.045 6.94238 55.6047 6.94238 55.0614C6.94238 31.6316 26.0498 12.5703 49.5361 12.5703C50.0805 12.5703 50.522 13.0105 50.522 13.5539C50.522 14.0972 50.0807 14.5374 49.5361 14.5374C27.1371 14.5374 8.91424 32.7164 8.91424 55.0614C8.91424 55.6045 8.47267 56.045 7.92831 56.045Z" fill="#0E4E14"/>
<path d="M90.3175 15.3572C90.1835 15.3572 90.0481 15.3298 89.9201 15.2735C89.5366 15.1048 89.302 14.7127 89.3351 14.2957L89.9275 6.853C89.9447 6.63125 90.0374 6.42207 90.1898 6.25937L95.7085 0.366791C95.9946 0.0613616 96.4433 -0.0305132 96.8265 0.138471C97.21 0.307182 97.4446 0.699292 97.4114 1.11628L96.8188 8.55898C96.8016 8.78074 96.7089 8.98992 96.5565 9.15261L91.0381 15.0452C90.8473 15.2486 90.5847 15.3572 90.3175 15.3572ZM91.8656 7.35121L91.5238 11.645L94.8804 8.06078L95.2225 3.76699L91.8656 7.35121Z" fill="#0E4E14"/>
<path d="M90.3178 15.3584C89.9551 15.3584 89.6166 15.1585 89.4448 14.8315C89.2502 14.4613 89.3116 14.009 89.5977 13.7036L95.1161 7.811C95.2688 7.64803 95.4722 7.54167 95.6934 7.5094L103.11 6.42467C103.525 6.36342 103.932 6.57151 104.127 6.94147C104.321 7.3117 104.259 7.76397 103.973 8.0694L98.4546 13.9598C98.302 14.1225 98.0986 14.2289 97.8777 14.2614L90.4611 15.348C90.4132 15.3549 90.3652 15.3584 90.3178 15.3584ZM96.3211 9.40542L92.9606 12.9937L97.2494 12.3654L100.61 8.77842L96.3211 9.40542Z" fill="#0E4E14"/>
<path d="M49.5327 56.0443C49.2806 56.0443 49.0281 55.9484 48.8357 55.7564C48.4506 55.3722 48.4506 54.7496 48.8357 54.3657L89.6185 13.6788C90.0033 13.2946 90.6277 13.2946 91.0125 13.6788C91.3976 14.0629 91.3976 14.6856 91.0125 15.0695L50.2298 55.7561C50.0374 55.9484 49.7849 56.0443 49.5327 56.0443Z" fill="#0E4E14"/>
</svg>
