<svg width="16" height="22" viewBox="0 0 16 22" fill="none" xmlns="http://www.w3.org/2000/svg">
<g clip-path="url(#clip0_489_428)">
<path d="M8.62956 1.25C4.55094 1.25 0.52002 3.96908 0.52002 8.3697C0.52002 11.1683 2.09423 12.7584 3.04829 12.7584C3.44184 12.7584 3.66843 11.6612 3.66843 11.3512C3.66843 10.9815 2.72629 10.1944 2.72629 8.65592C2.72629 5.45981 5.15916 3.19391 8.30757 3.19391C11.0147 3.19391 13.0183 4.73233 13.0183 7.55875C13.0183 9.66961 12.1715 13.629 9.42859 13.629C8.43875 13.629 7.59202 12.9134 7.59202 11.8878C7.59202 10.3852 8.64149 8.93022 8.64149 7.37986C8.64149 4.74823 4.90871 5.22527 4.90871 8.40548C4.90871 9.07333 4.99219 9.81273 5.29034 10.4209C4.74175 12.7822 3.62073 16.3004 3.62073 18.7332C3.62073 19.4845 3.72806 20.2239 3.79961 20.9753C3.93477 21.1263 3.86719 21.1104 4.07391 21.0349C6.07744 18.292 6.00589 17.7553 6.91225 14.1656C7.40121 15.0959 8.66534 15.5967 9.66711 15.5967C13.8888 15.5967 15.785 11.4823 15.785 7.77341C15.785 3.82597 12.3743 1.25 8.62956 1.25Z" fill="white"/>
</g>
<defs>
<clipPath id="clip0_489_428">
<path d="M0.52002 0.988281H15.785V21.3416H0.52002V0.988281Z" fill="white"/>
</clipPath>
</defs>
</svg>
