<svg width="122" height="122" viewBox="0 0 122 122" fill="none" xmlns="http://www.w3.org/2000/svg">
<path d="M3.01855 118.703H119.138" stroke="#0E4E14" stroke-width="2.07744" stroke-miterlimit="10" stroke-linecap="round"/>
<path d="M23.2143 96.0487C23.2143 95.3811 22.9484 94.7407 22.475 94.2686C22.0016 93.7965 21.3595 93.5312 20.69 93.5312H10.5927C9.9232 93.5312 9.28112 93.7965 8.80772 94.2686C8.33431 94.7407 8.06836 95.3811 8.06836 96.0487V118.706H23.2143V96.0487Z" stroke="#0E4E14" stroke-width="2.07744" stroke-miterlimit="10" stroke-linecap="round"/>
<path d="M53.5063 70.8769C53.5063 70.2092 53.2404 69.5688 52.767 69.0967C52.2936 68.6246 51.6515 68.3594 50.982 68.3594H40.8847C40.2152 68.3594 39.5731 68.6246 39.0997 69.0967C38.6263 69.5688 38.3604 70.2092 38.3604 70.8769V118.709H53.5063V70.8769Z" stroke="#0E4E14" stroke-width="2.07744" stroke-miterlimit="10" stroke-linecap="round"/>
<path d="M83.7983 80.9433C83.7983 80.2756 83.5324 79.6353 83.059 79.1631C82.5856 78.691 81.9435 78.4258 81.274 78.4258H71.1767C70.5072 78.4258 69.8651 78.691 69.3917 79.1631C68.9183 79.6353 68.6523 80.2756 68.6523 80.9433V118.706H83.7983V80.9433Z" stroke="#0E4E14" stroke-width="2.07744" stroke-miterlimit="10" stroke-linecap="round"/>
<path d="M114.089 45.6972C114.089 45.0295 113.823 44.3892 113.35 43.917C112.877 43.4449 112.235 43.1797 111.565 43.1797H101.468C100.798 43.1797 100.156 43.4449 99.6827 43.917C99.2093 44.3892 98.9434 45.0295 98.9434 45.6972V118.704H114.089V45.6972Z" stroke="#0E4E14" stroke-width="2.07744" stroke-miterlimit="10" stroke-linecap="round"/>
<path d="M15.6414 65.8393C19.8238 65.8393 23.2143 62.4579 23.2143 58.2868C23.2143 54.1157 19.8238 50.7344 15.6414 50.7344C11.4589 50.7344 8.06836 54.1157 8.06836 58.2868C8.06836 62.4579 11.4589 65.8393 15.6414 65.8393Z" stroke="#0E4E14" stroke-width="2.07744" stroke-miterlimit="10" stroke-linecap="round"/>
<path d="M45.9333 40.6635C50.1158 40.6635 53.5063 37.2821 53.5063 33.111C53.5063 28.9399 50.1158 25.5586 45.9333 25.5586C41.7509 25.5586 38.3604 28.9399 38.3604 33.111C38.3604 37.2821 41.7509 40.6635 45.9333 40.6635Z" stroke="#0E4E14" stroke-width="2.07744" stroke-miterlimit="10" stroke-linecap="round"/>
<path d="M76.2253 50.7299C80.4078 50.7299 83.7983 47.3485 83.7983 43.1774C83.7983 39.0063 80.4078 35.625 76.2253 35.625C72.0429 35.625 68.6523 39.0063 68.6523 43.1774C68.6523 47.3485 72.0429 50.7299 76.2253 50.7299Z" stroke="#0E4E14" stroke-width="2.07744" stroke-miterlimit="10" stroke-linecap="round"/>
<path d="M106.516 18.0072C110.699 18.0072 114.089 14.6259 114.089 10.4548C114.089 6.28369 110.699 2.90234 106.516 2.90234C102.334 2.90234 98.9434 6.28369 98.9434 10.4548C98.9434 14.6259 102.334 18.0072 106.516 18.0072Z" stroke="#0E4E14" stroke-width="2.07744" stroke-miterlimit="10" stroke-linecap="round"/>
<path d="M22.0078 52.9999L40.1174 37.9453" stroke="#0E4E14" stroke-width="2.07744" stroke-miterlimit="10" stroke-linecap="round"/>
<path d="M53.123 35.5L69.0415 40.7917" stroke="#0E4E14" stroke-width="2.07744" stroke-miterlimit="10" stroke-linecap="round"/>
<path d="M100.458 14.9844L81.4805 37.0627" stroke="#0E4E14" stroke-width="2.07744" stroke-miterlimit="10" stroke-linecap="round"/>
</svg>
