<svg width="173" height="54" viewBox="0 0 173 54" fill="none" xmlns="http://www.w3.org/2000/svg">
<path fill-rule="evenodd" clip-rule="evenodd" d="M7.64182 23.8626L21.5742 23.8768C23.8028 23.8909 26.1896 24.1317 27.2392 22.5453C28.0012 21.4121 28.1306 18.4801 26.4053 17.4602C25.0393 16.667 21.7899 16.922 19.9926 16.922C17.6634 16.922 15.3389 16.922 13.0192 16.922C10.8769 16.922 8.41824 17.0494 6.4053 16.6245C2.75326 15.8313 0.12206 13.3808 0.00703522 9.23059C-0.122368 4.58461 1.53111 1.96416 5.1544 0.661017C7.13858 -0.0472118 9.28092 0.0377722 11.4952 0.0377722C18.3823 0.0377722 25.5282 -0.0472153 32.3578 0.0377722L32.3434 5.22201C30.0861 5.30699 27.6562 5.22201 25.37 5.20785L11.4376 5.19368C9.09401 5.17952 7.16734 5.27867 6.62097 7.34669C6.37654 8.30989 6.46281 9.54221 6.92291 10.3354C7.3255 11.0153 8.03003 11.4544 9.0365 11.6527C10.0861 11.8652 21.5455 11.7377 22.8826 11.7377C25.1544 11.7377 27.0954 11.6952 29.1084 12.4176C32.5447 13.6216 34.4858 16.4687 34.2557 21.0297C34.0257 25.3499 31.8546 27.687 28.0875 28.6927C26.2327 29.1885 23.544 29.061 21.5023 29.061H7.56993C5.98833 29.061 1.94808 29.1318 0.668425 29.0468L0.682809 23.8626C1.76117 23.7776 6.204 23.8626 7.64182 23.8626ZM38.3247 0.22191L44.838 0.23608V11.936H65.3269V0.22191H71.8402L71.8258 28.8627H65.3269V17.1628L44.838 17.1769L44.8236 28.8485L38.3247 28.8627V0.22191ZM88.1449 0.22191H98.109C98.3247 0.264404 98.5116 0.830989 98.6266 1.10012L99.8487 3.77723C100.409 4.93872 100.927 6.12854 101.488 7.33253C102.595 9.71218 103.702 12.106 104.766 14.514C105.298 15.7321 105.844 16.922 106.405 18.1259C106.75 18.8625 111.222 28.5086 111.294 28.8485L104.392 28.8627C104.133 28.8627 103.774 27.857 103.587 27.4321L101.488 22.8144H84.9242L82.1636 28.8627L75.0896 28.8485L88.1449 0.22191ZM99.0867 17.6019L93.4648 5.23618C92.7172 5.20785 92.976 5.17952 92.2715 6.68097L88.7201 14.4573C88.2743 15.4347 87.7999 16.6103 87.311 17.5735C87.9436 17.6727 97.5914 17.616 99.0867 17.6019ZM148.289 1.96415C148.432 1.6667 148.562 1.36924 148.691 1.07179C148.806 0.802658 148.993 0.264404 149.18 0.22191H159.058C159.259 0.292733 160.582 3.39478 160.769 3.80555C163.529 9.71218 166.189 15.8313 168.95 21.7096C169.525 22.8994 170.028 24.0892 170.589 25.2649C170.834 25.7748 172.142 28.4944 172.185 28.8627L165.154 28.8485C164.867 28.2536 162.494 22.8711 162.293 22.8144H145.945C145.643 22.9702 145.312 23.9618 145.154 24.3017L143.055 28.8627L136.024 28.8485L148.289 1.96415ZM148.217 17.6019L148.49 17.616C150.057 17.6302 158.928 17.6727 159.992 17.5877C159.762 16.922 156.197 9.24475 155.751 8.26739L154.673 5.91608C154.399 5.32116 154.514 5.23618 154.011 5.23618C153.709 5.23618 153.436 6.14271 153.192 6.6668L148.217 17.6019Z" fill="white"/>
<path fill-rule="evenodd" clip-rule="evenodd" d="M76.4995 36.9094H172.2V33H76.5139L76.4995 36.9094Z" fill="#8A2F14"/>
<path fill-rule="evenodd" clip-rule="evenodd" d="M120.439 28.8493L126.952 28.8635C127.024 28.2685 126.981 20.733 126.981 19.359C126.981 18.7074 126.894 18.665 127.239 18.2683L134.745 9.28799C135.162 8.7639 135.55 8.29647 135.996 7.78655C137.822 5.67603 139.763 3.23972 141.589 1.05837C141.848 0.760914 142.078 0.562606 142.25 0.222656H134.198C134.098 0.435125 133.753 0.845896 133.566 1.0442C133.321 1.32749 133.134 1.5683 132.933 1.83742C132.487 2.40401 132.056 2.89977 131.61 3.46635C131.078 4.11792 123.947 12.9425 123.645 13.1549L122.365 11.5685C121.905 11.0161 121.517 10.5203 121.042 9.95373L115.737 3.48051C115.277 2.92809 114.889 2.43234 114.414 1.86575C114.127 1.51164 113.278 0.534277 113.12 0.222656H105.068C105.413 0.860063 117.117 14.5997 118.814 16.7102L120.093 18.24C120.453 18.6366 120.424 18.58 120.424 19.2882C120.41 21.3846 120.324 27.617 120.439 28.8493Z" fill="white"/>
<path d="M169.809 50.1601C169.179 50.1601 168.64 50.0911 168.193 49.953C167.745 49.815 167.376 49.6689 167.085 49.515L167.263 48.0017C167.538 48.1876 167.885 48.3681 168.306 48.5433C168.731 48.7132 169.211 48.7982 169.745 48.7982C170.208 48.7982 170.561 48.7238 170.804 48.5752C171.052 48.4212 171.176 48.1955 171.176 47.8982C171.176 47.6539 171.103 47.4575 170.957 47.3088C170.812 47.1548 170.621 47.0274 170.383 46.9265C170.146 46.8256 169.896 46.7327 169.632 46.6478C169.217 46.515 168.823 46.361 168.451 46.1858C168.085 46.0106 167.786 45.777 167.554 45.485C167.327 45.1876 167.214 44.7947 167.214 44.3062C167.214 43.8815 167.322 43.4912 167.538 43.1355C167.753 42.7797 168.079 42.4983 168.516 42.2912C168.958 42.0788 169.518 41.9727 170.197 41.9727C170.715 41.9727 171.154 42.0284 171.515 42.1399C171.882 42.2461 172.208 42.3735 172.493 42.5222L172.316 43.9956C172.03 43.7779 171.72 43.5974 171.386 43.454C171.057 43.3054 170.672 43.231 170.23 43.231C169.82 43.231 169.494 43.3107 169.252 43.47C169.009 43.6239 168.888 43.8602 168.888 44.1788C168.888 44.5186 169.031 44.7655 169.316 44.9195C169.602 45.0735 170.047 45.2513 170.65 45.4531C170.925 45.5434 171.195 45.6522 171.459 45.7796C171.723 45.9018 171.963 46.0504 172.178 46.2257C172.399 46.4009 172.574 46.6186 172.704 46.8787C172.833 47.1389 172.898 47.4495 172.898 47.8106C172.898 48.2247 172.795 48.6097 172.59 48.9654C172.391 49.3212 172.065 49.6105 171.612 49.8335C171.165 50.0512 170.564 50.1601 169.809 50.1601Z" fill="white"/>
<path d="M165.112 50.1606C164.616 50.1606 164.217 50.0677 163.915 49.8818C163.614 49.696 163.393 49.4544 163.252 49.1571C163.118 48.8544 163.05 48.5332 163.05 48.1934V38.0547H164.74V47.3731C164.74 47.8084 164.767 48.1297 164.821 48.3368C164.88 48.5385 164.991 48.6686 165.152 48.727C165.319 48.7854 165.565 48.8146 165.888 48.8146L165.694 50.1606H165.112Z" fill="white"/>
<path d="M157.092 50.1601C156.246 50.1601 155.521 49.9769 154.917 49.6105C154.319 49.2389 153.861 48.7451 153.543 48.1292C153.231 47.5079 153.074 46.823 153.074 46.0743C153.074 45.3204 153.231 44.6328 153.543 44.0115C153.861 43.3903 154.319 42.8965 154.917 42.5302C155.521 42.1585 156.246 41.9727 157.092 41.9727C157.944 41.9727 158.669 42.1585 159.267 42.5302C159.871 42.8965 160.329 43.3903 160.641 44.0115C160.959 44.6328 161.118 45.3204 161.118 46.0743C161.118 46.823 160.959 47.5079 160.641 48.1292C160.329 48.7451 159.871 49.2389 159.267 49.6105C158.669 49.9769 157.944 50.1601 157.092 50.1601ZM157.092 48.7344C157.836 48.7344 158.405 48.4955 158.798 48.0176C159.197 47.5398 159.396 46.892 159.396 46.0743C159.396 45.2513 159.197 44.5983 158.798 44.1151C158.405 43.6319 157.836 43.3903 157.092 43.3903C156.359 43.3903 155.793 43.6319 155.394 44.1151C154.996 44.5983 154.796 45.2513 154.796 46.0743C154.796 46.892 154.996 47.5398 155.394 48.0176C155.793 48.4955 156.359 48.7344 157.092 48.7344Z" fill="white"/>
<path d="M148.035 50.0008V42.1319H149.522L149.643 43.231C149.967 42.8487 150.312 42.5434 150.678 42.3151C151.05 42.0868 151.452 41.9727 151.883 41.9727C152.012 41.9727 152.133 41.9859 152.247 42.0125L152.101 43.7408C152.01 43.7195 151.915 43.7036 151.818 43.693C151.727 43.6824 151.63 43.677 151.527 43.677C151.139 43.677 150.783 43.7646 150.46 43.9399C150.142 44.1098 149.916 44.3036 149.781 44.5213V50.0008H148.035Z" fill="white"/>
<path d="M144.748 50.1606C144.247 50.1606 143.84 50.065 143.528 49.8739C143.22 49.6828 142.994 49.4385 142.849 49.1412C142.708 48.8438 142.638 48.5306 142.638 48.2014V43.4625H141.369L141.523 42.1325H142.638V40.2768L144.328 40.1016V42.1325H146.285V43.4625H144.328V47.3571C144.328 47.8138 144.355 48.1456 144.409 48.3527C144.463 48.5545 144.595 48.6819 144.805 48.735C145.015 48.7881 145.349 48.8146 145.808 48.8146H146.26L146.115 50.1606H144.748Z" fill="white"/>
<path d="M132.697 50.0006V42.1318H134.144L134.347 43.6211L133.829 43.2229C134.266 42.7769 134.721 42.4583 135.195 42.2672C135.67 42.076 136.166 41.9805 136.683 41.9805C137.788 41.9805 138.591 42.315 139.092 42.984C139.593 43.6477 139.844 44.5317 139.844 45.6361V50.0006H138.154V45.7078C138.154 44.9167 138.011 44.3353 137.726 43.9636C137.44 43.5919 136.958 43.4061 136.279 43.4061C135.777 43.4061 135.336 43.5203 134.953 43.7486C134.576 43.9716 134.301 44.3061 134.128 44.7521L134.387 43.8362V50.0006H132.697Z" fill="white"/>
<path d="M126.729 50.1601C125.883 50.1601 125.158 49.9769 124.554 49.6105C123.956 49.2389 123.498 48.7451 123.18 48.1292C122.867 47.5079 122.711 46.823 122.711 46.0743C122.711 45.3204 122.867 44.6328 123.18 44.0115C123.498 43.3903 123.956 42.8965 124.554 42.5302C125.158 42.1585 125.883 41.9727 126.729 41.9727C127.58 41.9727 128.305 42.1585 128.904 42.5302C129.507 42.8965 129.965 43.3903 130.278 44.0115C130.596 44.6328 130.755 45.3204 130.755 46.0743C130.755 46.823 130.596 47.5079 130.278 48.1292C129.965 48.7451 129.507 49.2389 128.904 49.6105C128.305 49.9769 127.58 50.1601 126.729 50.1601ZM126.729 48.7344C127.473 48.7344 128.041 48.4955 128.435 48.0176C128.834 47.5398 129.033 46.892 129.033 46.0743C129.033 45.2513 128.834 44.5983 128.435 44.1151C128.041 43.6319 127.473 43.3903 126.729 43.3903C125.996 43.3903 125.43 43.6319 125.031 44.1151C124.632 44.5983 124.433 45.2513 124.433 46.0743C124.433 46.892 124.632 47.5398 125.031 48.0176C125.43 48.4955 125.996 48.7344 126.729 48.7344Z" fill="white"/>
<path d="M118.376 50.2212C117.255 50.2212 116.261 49.9823 115.393 49.5044C114.53 49.0265 113.854 48.3549 113.364 47.4894C112.873 46.6186 112.628 45.5965 112.628 44.4231C112.628 43.2497 112.876 42.2302 113.372 41.3648C113.873 40.494 114.563 39.8197 115.441 39.3418C116.32 38.8639 117.32 38.625 118.441 38.625C119.023 38.625 119.57 38.6861 120.082 38.8082C120.594 38.9303 121.041 39.0869 121.424 39.2781L121.23 40.9108C120.826 40.7196 120.392 40.5604 119.928 40.4329C119.465 40.3055 118.963 40.2418 118.425 40.2418C117.573 40.2418 116.862 40.4276 116.29 40.7993C115.719 41.1656 115.285 41.6648 114.989 42.2966C114.698 42.9231 114.552 43.632 114.552 44.4231C114.552 45.2142 114.695 45.9257 114.981 46.5576C115.272 47.1841 115.7 47.6832 116.266 48.0549C116.837 48.4212 117.543 48.6044 118.384 48.6044C118.939 48.6044 119.443 48.546 119.896 48.4292C120.354 48.3071 120.799 48.1451 121.23 47.9434L121.424 49.5761C121.009 49.7619 120.545 49.9159 120.033 50.038C119.527 50.1601 118.974 50.2212 118.376 50.2212Z" fill="white"/>
<path d="M101.653 50.377C100.844 50.377 100.168 50.2389 99.6236 49.9628C99.0792 49.6867 98.6696 49.323 98.3947 48.8717C98.1199 48.4151 97.9824 47.9186 97.9824 47.3824C97.9824 46.9417 98.0606 46.5328 98.2169 46.1558C98.3732 45.7789 98.5995 45.4284 98.896 45.1045C99.1978 44.7807 99.5616 44.4674 99.9874 44.1647C99.5831 43.6709 99.2786 43.201 99.0738 42.755C98.8744 42.309 98.7747 41.8736 98.7747 41.4489C98.7747 40.8967 98.9121 40.4241 99.187 40.0312C99.4673 39.633 99.8338 39.3303 100.286 39.1233C100.745 38.9109 101.238 38.8047 101.766 38.8047C102.666 38.8047 103.337 39.0171 103.779 39.4418C104.226 39.8613 104.45 40.3949 104.45 41.0427C104.45 41.5099 104.329 41.9267 104.086 42.2931C103.844 42.6595 103.528 42.9993 103.14 43.3125C102.752 43.6258 102.34 43.9311 101.903 44.2285L104.636 47.1036C104.717 46.939 104.784 46.7399 104.838 46.5063C104.892 46.2727 104.935 46.0258 104.967 45.7656C105 45.5054 105.021 45.2559 105.032 45.0169C105.048 44.778 105.059 44.5736 105.064 44.4037H106.633C106.627 44.7116 106.6 45.086 106.552 45.5267C106.509 45.962 106.42 46.4213 106.285 46.9045C106.15 47.3824 105.954 47.839 105.695 48.2744L107.223 50.0027H105.38L104.757 49.3496C104.315 49.7053 103.849 49.9655 103.359 50.1301C102.874 50.2947 102.305 50.377 101.653 50.377ZM101.79 49.1106C102.286 49.1106 102.704 49.039 103.043 48.8956C103.383 48.7522 103.671 48.5638 103.908 48.3301L100.788 45.1045C100.464 45.3647 100.198 45.6753 99.9874 46.0364C99.7772 46.3974 99.6721 46.801 99.6721 47.247C99.6721 47.5709 99.7394 47.8762 99.8742 48.1629C100.014 48.4443 100.238 48.6726 100.545 48.8478C100.852 49.023 101.267 49.1106 101.79 49.1106ZM101.192 43.3603C101.558 43.1108 101.871 42.8745 102.13 42.6515C102.394 42.4285 102.596 42.2028 102.736 41.9745C102.882 41.7409 102.954 41.4781 102.954 41.186C102.954 40.8303 102.844 40.5622 102.623 40.3816C102.407 40.1958 102.114 40.1029 101.742 40.1029C101.37 40.1029 101.046 40.2197 100.772 40.4533C100.502 40.6869 100.367 41.0374 100.367 41.5046C100.367 41.7542 100.427 42.0303 100.545 42.3329C100.664 42.6303 100.879 42.9727 101.192 43.3603Z" fill="white"/>
<path d="M88.9185 53.9989C88.1855 53.9989 87.536 53.9087 86.9701 53.7281C86.4042 53.5476 85.9595 53.2848 85.6362 52.9397C85.3182 52.5998 85.1592 52.183 85.1592 51.6892C85.1592 51.2751 85.2778 50.914 85.5149 50.6061C85.752 50.3034 86.0835 50.0486 86.5093 49.8415C86.2721 49.7141 86.0862 49.5627 85.9515 49.3875C85.8221 49.207 85.7574 49.0079 85.7574 48.7902C85.7574 48.546 85.8302 48.3283 85.9757 48.1371C86.1266 47.946 86.3503 47.7893 86.6467 47.6672C86.2156 47.3911 85.8868 47.0248 85.6604 46.5681C85.4341 46.1115 85.3209 45.6097 85.3209 45.0628C85.3209 44.4947 85.4475 43.977 85.7008 43.5098C85.9595 43.0372 86.3314 42.6629 86.8165 42.3868C87.307 42.1107 87.8998 41.9727 88.5951 41.9727C88.9616 41.9727 89.3038 42.0231 89.6218 42.124C89.9452 42.2196 90.2362 42.3549 90.4949 42.5302C90.7051 42.4134 90.9692 42.3151 91.2872 42.2355C91.6106 42.1505 91.969 42.1081 92.3625 42.1081C92.4164 42.1081 92.4676 42.1081 92.5161 42.1081C92.5646 42.1081 92.6131 42.1081 92.6616 42.1081L92.4999 43.1832C92.4137 43.1832 92.3274 43.1832 92.2412 43.1832C92.155 43.1832 92.0687 43.1832 91.9825 43.1832C91.9286 43.1832 91.8289 43.1886 91.6834 43.1992C91.5378 43.2098 91.3977 43.2284 91.263 43.2549C91.4624 43.5098 91.6133 43.7912 91.7157 44.0992C91.8181 44.4071 91.8693 44.7283 91.8693 45.0628C91.8693 45.6522 91.74 46.1832 91.4812 46.6557C91.2279 47.1283 90.856 47.5053 90.3656 47.7867C89.8805 48.0681 89.2904 48.2088 88.5951 48.2088C88.4226 48.2088 88.2528 48.1982 88.0858 48.1769C87.9241 48.1504 87.7678 48.1185 87.6169 48.0814C87.4228 48.1451 87.3258 48.2592 87.3258 48.4238C87.3258 48.5513 87.404 48.6575 87.5603 48.7424C87.7166 48.8221 87.9645 48.8884 88.304 48.9415L90.115 49.2043C90.9773 49.3318 91.6456 49.576 92.1199 49.9371C92.5996 50.2981 92.8394 50.8132 92.8394 51.4822C92.8394 52.0184 92.6804 52.4724 92.3625 52.8441C92.0499 53.2211 91.5998 53.5078 91.0123 53.7042C90.4249 53.9007 89.7269 53.9989 88.9185 53.9989ZM89.0316 52.629C89.7485 52.629 90.2955 52.5388 90.6728 52.3583C91.0501 52.183 91.2387 51.9176 91.2387 51.5618C91.2387 51.2645 91.1148 51.0388 90.8668 50.8848C90.6189 50.7309 90.247 50.6114 89.7512 50.5264L87.6977 50.2079C87.4174 50.3247 87.1749 50.4813 86.9701 50.6778C86.7707 50.8795 86.671 51.1238 86.671 51.4105C86.671 51.8299 86.8812 52.1379 87.3016 52.3344C87.7273 52.5308 88.304 52.629 89.0316 52.629ZM88.5951 46.9265C89.1556 46.9265 89.5787 46.7566 89.8644 46.4168C90.1554 46.0717 90.3009 45.623 90.3009 45.0708C90.3009 44.5292 90.1554 44.0912 89.8644 43.7567C89.5787 43.4169 89.1556 43.247 88.5951 43.247C88.0346 43.247 87.6088 43.4169 87.3177 43.7567C87.0321 44.0912 86.8893 44.5292 86.8893 45.0708C86.8893 45.623 87.0321 46.0717 87.3177 46.4168C87.6088 46.7566 88.0346 46.9265 88.5951 46.9265Z" fill="white"/>
<path d="M76.2456 50.0006V42.1318H77.6927L77.8948 43.6211L77.3774 43.2229C77.814 42.7769 78.2694 42.4583 78.7437 42.2672C79.218 42.076 79.7138 41.9805 80.2313 41.9805C81.3361 41.9805 82.1392 42.315 82.6404 42.984C83.1417 43.6477 83.3923 44.5317 83.3923 45.6361V50.0006H81.7026V45.7078C81.7026 44.9167 81.5598 44.3353 81.2742 43.9636C80.9885 43.5919 80.5061 43.4061 79.827 43.4061C79.3258 43.4061 78.8838 43.5203 78.5012 43.7486C78.1239 43.9716 77.849 44.3061 77.6766 44.7521L77.9353 43.8362V50.0006H76.2456Z" fill="white"/>
<path d="M72.1455 50.0017V42.1329H73.8352V50.0017H72.1455ZM72.1455 40.6037V38.8516H73.8352V40.6037H72.1455Z" fill="white"/>
<path d="M68.8578 50.1606C68.3566 50.1606 67.9497 50.065 67.6371 49.8739C67.3299 49.6828 67.1035 49.4385 66.958 49.1412C66.8178 48.8438 66.7478 48.5306 66.7478 48.2014V43.4625H65.4785L65.6321 42.1325H66.7478V40.2768L68.4374 40.1016V42.1325H70.3939V43.4625H68.4374V47.3571C68.4374 47.8138 68.4644 48.1456 68.5183 48.3527C68.5722 48.5545 68.7042 48.6819 68.9144 48.735C69.1246 48.7881 69.4588 48.8146 69.9169 48.8146H70.3696L70.2241 50.1606H68.8578Z" fill="white"/>
<path d="M56.9473 50.0013V38.0547H58.645V43.3988L58.1599 43.2316C58.5157 42.8705 58.901 42.5732 59.316 42.3395C59.7364 42.1006 60.2565 41.9811 60.8763 41.9811C61.5716 41.9811 62.1456 42.1351 62.5983 42.4431C63.051 42.7457 63.3879 43.1705 63.6089 43.7174C63.8299 44.2643 63.9403 44.8988 63.9403 45.6209V50.0013H62.2507V45.7802C62.2507 44.9678 62.1079 44.3705 61.8222 43.9882C61.5366 43.6006 61.0865 43.4068 60.4721 43.4068C59.9816 43.4068 59.5612 43.5289 59.2109 43.7731C58.866 44.0174 58.5803 44.3439 58.354 44.7528L58.645 43.797V50.0013H56.9473Z" fill="white"/>
<path d="M51.6104 53.9989C50.8774 53.9989 50.2279 53.9087 49.662 53.7281C49.0961 53.5476 48.6514 53.2848 48.3281 52.9397C48.0101 52.5998 47.8511 52.183 47.8511 51.6892C47.8511 51.2751 47.9696 50.914 48.2068 50.6061C48.4439 50.3034 48.7754 50.0486 49.2012 49.8415C48.964 49.7141 48.7781 49.5627 48.6434 49.3875C48.514 49.207 48.4493 49.0079 48.4493 48.7902C48.4493 48.546 48.5221 48.3283 48.6676 48.1371C48.8185 47.946 49.0422 47.7893 49.3386 47.6672C48.9074 47.3911 48.5787 47.0248 48.3523 46.5681C48.1259 46.1115 48.0128 45.6097 48.0128 45.0628C48.0128 44.4947 48.1394 43.977 48.3927 43.5098C48.6514 43.0372 49.0233 42.6629 49.5084 42.3868C49.9989 42.1107 50.5917 41.9727 51.287 41.9727C51.6535 41.9727 51.9957 42.0231 52.3137 42.124C52.6371 42.2196 52.9281 42.3549 53.1868 42.5302C53.397 42.4134 53.6611 42.3151 53.9791 42.2355C54.3025 42.1505 54.6609 42.1081 55.0543 42.1081C55.1082 42.1081 55.1594 42.1081 55.208 42.1081C55.2565 42.1081 55.305 42.1081 55.3535 42.1081L55.1918 43.1832C55.1056 43.1832 55.0193 43.1832 54.9331 43.1832C54.8468 43.1832 54.7606 43.1832 54.6744 43.1832C54.6205 43.1832 54.5208 43.1886 54.3753 43.1992C54.2297 43.2098 54.0896 43.2284 53.9549 43.2549C54.1543 43.5098 54.3052 43.7912 54.4076 44.0992C54.51 44.4071 54.5612 44.7283 54.5612 45.0628C54.5612 45.6522 54.4318 46.1832 54.1731 46.6557C53.9198 47.1283 53.5479 47.5053 53.0575 47.7867C52.5724 48.0681 51.9822 48.2088 51.287 48.2088C51.1145 48.2088 50.9447 48.1982 50.7777 48.1769C50.616 48.1504 50.4597 48.1185 50.3088 48.0814C50.1147 48.1451 50.0177 48.2592 50.0177 48.4238C50.0177 48.5513 50.0959 48.6575 50.2522 48.7424C50.4085 48.8221 50.6564 48.8884 50.9959 48.9415L52.8069 49.2043C53.6692 49.3318 54.3375 49.576 54.8118 49.9371C55.2915 50.2981 55.5313 50.8132 55.5313 51.4822C55.5313 52.0184 55.3723 52.4724 55.0543 52.8441C54.7417 53.2211 54.2917 53.5078 53.7042 53.7042C53.1168 53.9007 52.4188 53.9989 51.6104 53.9989ZM51.7235 52.629C52.4404 52.629 52.9874 52.5388 53.3647 52.3583C53.742 52.183 53.9306 51.9176 53.9306 51.5618C53.9306 51.2645 53.8066 51.0388 53.5587 50.8848C53.3108 50.7309 52.9389 50.6114 52.4431 50.5264L50.3896 50.2079C50.1093 50.3247 49.8668 50.4813 49.662 50.6778C49.4626 50.8795 49.3629 51.1238 49.3629 51.4105C49.3629 51.8299 49.5731 52.1379 49.9935 52.3344C50.4192 52.5308 50.9959 52.629 51.7235 52.629ZM51.287 46.9265C51.8475 46.9265 52.2706 46.7566 52.5562 46.4168C52.8473 46.0717 52.9928 45.623 52.9928 45.0708C52.9928 44.5292 52.8473 44.0912 52.5562 43.7567C52.2706 43.4169 51.8475 43.247 51.287 43.247C50.7265 43.247 50.3007 43.4169 50.0096 43.7567C49.724 44.0912 49.5812 44.5292 49.5812 45.0708C49.5812 45.623 49.724 46.0717 50.0096 46.4168C50.3007 46.7566 50.7265 46.9265 51.287 46.9265Z" fill="white"/>
<path d="M44.3105 50.0017V42.1329H46.0002V50.0017H44.3105ZM44.3105 40.6037V38.8516H46.0002V40.6037H44.3105Z" fill="white"/>
<path d="M36.0312 50.0017V38.8516H37.7937V48.4407H42.7575V50.0017H36.0312Z" fill="white"/>
</svg>
